<svg width="25" height="25" viewBox="0 0 25 25" fill="none" xmlns="http://www.w3.org/2000/svg">
<path d="M12.4992 24.9983C11.8276 24.9983 11.1535 24.9445 10.4971 24.8386C7.59817 24.3721 4.94133 22.8819 3.01658 20.6428C1.0708 18.3793 0 15.4872 0 12.4992C0 5.60703 5.60701 0 12.5 0C19.393 0 25 5.60703 25 12.4992C25 15.5334 23.8989 18.46 21.9002 20.7387C19.92 22.9963 17.1993 24.4663 14.2407 24.879C13.6683 24.9588 13.0833 24.9992 12.5008 24.9992L12.4992 24.9983ZM12.4992 1.00779C6.16259 1.00779 1.00777 6.1626 1.00777 12.4983C1.00777 18.1718 5.06573 22.9425 10.6576 23.8426C11.7847 24.0242 12.9665 24.0368 14.1003 23.8788C19.7384 23.0929 23.9906 18.2003 23.9906 12.4983C23.9906 6.1626 18.8357 1.00779 12.4992 1.00779Z" fill="#666666"/>
<path d="M14.1693 10.1348V12.748H17.4018L16.89 16.268H14.1693V24.378C13.6238 24.4537 13.0657 24.4932 12.4992 24.4932C11.8453 24.4932 11.2031 24.4411 10.5778 24.3402V16.268H7.5965V12.748H10.5778V9.55066C10.5778 7.56707 12.1857 5.95834 14.1701 5.95834V5.96003C14.176 5.96003 14.181 5.95834 14.1869 5.95834H17.4027V9.00265H15.3014C14.6769 9.00265 14.1701 9.50947 14.1701 10.134L14.1693 10.1348Z" fill="#666666"/>
</svg>
