<svg width="25" height="25" viewBox="0 0 25 25" fill="none" xmlns="http://www.w3.org/2000/svg">
<path d="M12.5275 25H12.4725C5.59524 25 0 19.4047 0 12.5275V12.4725C0 5.59523 5.59524 0 12.4725 0H12.5275C19.4048 0 25 5.59523 25 12.4725V12.5275C25 19.4047 19.4048 25 12.5275 25ZM12.4725 0.846224C6.06151 0.846224 0.846224 6.06149 0.846224 12.4725V12.5275C0.846224 18.9385 6.06151 24.1538 12.4725 24.1538H12.5275C18.9385 24.1538 24.1538 18.9385 24.1538 12.5275V12.4725C24.1538 6.06149 18.9385 0.846224 12.5275 0.846224H12.4725Z" fill="#666666"/>
<path d="M16.2374 5.33711H8.76351C6.69872 5.33711 5.01896 7.01687 5.01896 9.08165V15.9191C5.01896 17.9839 6.69872 19.6637 8.76351 19.6637H16.2374C18.3021 19.6637 19.9819 17.9839 19.9819 15.9191V9.08165C19.9819 7.01687 18.3021 5.33711 16.2374 5.33711ZM6.33992 9.08165C6.33992 7.74547 7.42732 6.65808 8.76351 6.65808H16.2374C17.5735 6.65808 18.6609 7.74547 18.6609 9.08165V15.9191C18.6609 17.2553 17.5735 18.3427 16.2374 18.3427H8.76351C7.42732 18.3427 6.33992 17.2553 6.33992 15.9191V9.08165Z" fill="#666666"/>
<path d="M12.5004 15.9826C14.4205 15.9826 15.9835 14.4205 15.9835 12.4996C15.9835 10.5786 14.4214 9.01648 12.5004 9.01648C10.5795 9.01648 9.01739 10.5786 9.01739 12.4996C9.01739 14.4205 10.5795 15.9826 12.5004 15.9826ZM12.5004 10.3383C13.6928 10.3383 14.6626 11.3081 14.6626 12.5004C14.6626 13.6927 13.6928 14.6625 12.5004 14.6625C11.3081 14.6625 10.3383 13.6927 10.3383 12.5004C10.3383 11.3081 11.3081 10.3383 12.5004 10.3383Z" fill="#666666"/>
<path d="M16.3059 9.57923C16.823 9.57923 17.2444 9.15864 17.2444 8.64076C17.2444 8.12287 16.8238 7.70229 16.3059 7.70229C15.788 7.70229 15.3675 8.12287 15.3675 8.64076C15.3675 9.15864 15.788 9.57923 16.3059 9.57923Z" fill="#666666"/>
</svg>
