<svg width="26" height="26" viewBox="0 0 26 26" fill="none" xmlns="http://www.w3.org/2000/svg">
<path fill-rule="evenodd" clip-rule="evenodd" d="M0.8125 13C0.8125 19.731 6.26903 25.1875 13 25.1875C19.731 25.1875 25.1875 19.731 25.1875 13C25.1875 6.26903 19.731 0.8125 13 0.8125C6.26903 0.8125 0.8125 6.26903 0.8125 13ZM13 0C5.8203 0 0 5.8203 0 13C0 20.1797 5.8203 26 13 26C20.1797 26 26 20.1797 26 13C26 5.8203 20.1797 0 13 0Z" fill="#666666"/>
<path fill-rule="evenodd" clip-rule="evenodd" d="M21.6667 12.3509C21.6667 8.4728 17.779 5.31778 12.9999 5.31778C8.22153 5.31778 4.33333 8.4728 4.33333 12.3509C4.33333 15.8275 7.41658 18.7392 11.5814 19.2897C11.8637 19.3506 12.2478 19.4758 12.345 19.7171C12.4324 19.9362 12.4021 20.2794 12.3729 20.5007C12.3729 20.5007 12.2712 21.1123 12.2493 21.2426L12.2459 21.2619C12.2048 21.4965 12.101 22.0886 12.9999 21.7098C13.925 21.32 17.9911 18.7709 19.8094 16.678C21.0654 15.3007 21.6667 13.903 21.6667 12.3509ZM11.2391 10.4768H10.6312C10.538 10.4768 10.4622 10.5524 10.4622 10.6453V14.4217C10.4622 14.5147 10.538 14.5902 10.6312 14.5902H11.2391C11.3323 14.5902 11.4079 14.5147 11.4079 14.4217V10.6453C11.4079 10.5524 11.3323 10.4768 11.2391 10.4768ZM14.8154 10.4768H15.4233C15.5167 10.4768 15.5921 10.5524 15.5921 10.6453V14.4217C15.5921 14.5147 15.5167 14.5902 15.4233 14.5902H14.8154C14.8005 14.5902 14.786 14.588 14.7722 14.5843C14.7714 14.5842 14.7706 14.5838 14.7697 14.5838L14.7628 14.5816L14.7583 14.58C14.7566 14.5795 14.7549 14.5789 14.7533 14.5782L14.7483 14.5761L14.745 14.5747C14.7423 14.5735 14.7395 14.5722 14.737 14.5707L14.7338 14.5692L14.7322 14.5682C14.7287 14.5662 14.7252 14.5641 14.7217 14.5619L14.7211 14.5614L14.7201 14.5606C14.7039 14.5496 14.6892 14.5358 14.6772 14.5189L12.9445 12.1788V14.4217C12.9445 14.5147 12.8689 14.5902 12.7755 14.5902H12.1678C12.0746 14.5902 11.9988 14.5147 11.9988 14.4217V10.6453C11.9988 10.5524 12.0746 10.4768 12.1678 10.4768H12.7755L12.7815 10.4772L12.7844 10.4773C12.7863 10.4774 12.7883 10.4774 12.7902 10.4777L12.7949 10.4782C12.7963 10.4783 12.7977 10.4785 12.7991 10.4788C12.8015 10.479 12.804 10.4793 12.8063 10.4797L12.8105 10.4806L12.8159 10.4818L12.8187 10.4826L12.8217 10.4835C12.8252 10.4843 12.8285 10.4855 12.8319 10.4866L12.8374 10.4886C12.8407 10.4898 12.8438 10.4913 12.847 10.4928L12.8482 10.4933L12.8503 10.4943L12.8523 10.4953C12.8553 10.4968 12.8583 10.4986 12.8613 10.5004C12.8631 10.5013 12.8648 10.5023 12.8664 10.5034C12.8683 10.5045 12.87 10.5058 12.8718 10.5071L12.8752 10.5094L12.8764 10.5103L12.8773 10.511C12.8781 10.5116 12.8788 10.5122 12.8795 10.5129C12.8827 10.5152 12.8857 10.5177 12.8885 10.5204C12.8897 10.5214 12.8907 10.5222 12.8917 10.5232C12.8952 10.5265 12.8985 10.5298 12.9018 10.5337L12.903 10.5347C12.9076 10.5401 12.9121 10.5458 12.9161 10.5518L14.6466 12.8889V10.6453C14.6466 10.5524 14.7222 10.4768 14.8154 10.4768ZM9.7737 13.6446H8.12193V10.6456C8.12193 10.5523 8.04633 10.4768 7.9533 10.4768H7.34522C7.25201 10.4768 7.17642 10.5523 7.17642 10.6456V14.4213C7.17642 14.4666 7.19453 14.508 7.2236 14.5382C7.22427 14.5391 7.22493 14.5399 7.22593 14.5407L7.22842 14.5431C7.25883 14.5723 7.2997 14.5902 7.34505 14.5902H9.7737C9.86691 14.5902 9.94217 14.5145 9.94217 14.4213V13.8134C9.94217 13.7202 9.86691 13.6446 9.7737 13.6446ZM18.9489 11.2536C18.9489 11.347 18.8736 11.4224 18.7804 11.4224H17.1288V12.0606H18.7804C18.8736 12.0606 18.9489 12.1363 18.9489 12.2295V12.8374C18.9489 12.9306 18.8736 13.0062 18.7804 13.0062H17.1288V13.6446H18.7804C18.8736 13.6446 18.9489 13.7203 18.9489 13.8134V14.4214C18.9489 14.5145 18.8736 14.5902 18.7804 14.5902H16.3519C16.3068 14.5902 16.2654 14.5721 16.2351 14.543C16.2343 14.5424 16.2333 14.5415 16.2327 14.5407C16.2318 14.5401 16.231 14.5391 16.2303 14.5382C16.2013 14.508 16.1831 14.467 16.1831 14.4216V10.6457C16.1831 10.6005 16.2011 10.5595 16.23 10.5292C16.2308 10.5282 16.2317 10.5272 16.2327 10.5263C16.2332 10.5256 16.234 10.5251 16.2346 10.5244C16.2651 10.495 16.3061 10.4767 16.3516 10.4767H18.7804C18.8736 10.4767 18.9489 10.5525 18.9489 10.6457V11.2536Z" fill="#666666"/>
</svg>
