<svg width="75" height="127" viewBox="0 0 75 127" fill="none" xmlns="http://www.w3.org/2000/svg">
<path d="M8.5 58.1475C3.55 57.3475 2 56.8975 2 56.1475C2 55.4975 2.39999 55.4475 4.39999 55.6975C5.69999 55.8475 7.94999 56.1475 9.39999 56.2975C11.5 56.5975 12 56.7975 12 57.5475C12 58.4975 11.35 58.5975 8.5 58.1475Z" fill="#7F4121"/>
<path d="M0.5 50.4476C0.5 48.8476 1.7 45.4976 2.3 45.4976C3.05 45.4976 3.2 46.8976 2.7 49.4476C2.45 50.4976 2.1 50.9976 1.45 50.9976C0.899997 50.9976 0.5 50.7476 0.5 50.4476Z" fill="#7F4121"/>
<path d="M2.5 42.8976C2.5 41.3976 3.15 39.9976 3.8 39.9976C4.25 39.9976 4.5 40.5976 4.5 41.7476C4.5 43.1476 4.3 43.4976 3.5 43.4976C2.95 43.4976 2.5 43.1976 2.5 42.8976Z" fill="#7F4121"/>
<path d="M13.5 16.4975C15.05 14.2975 15.5 14.2475 15.5 16.1975C15.5 17.8475 15.4 17.9975 13.95 17.9975H12.45L13.5 16.4975Z" fill="#7F4121"/>
<path d="M16.5 59.6976C16.5 59.2476 16.05 58.7976 15.5 58.6476C13.75 58.1976 14.3 56.9976 16.25 56.9976C17.9 56.9976 18 57.0976 18 58.7476C18 59.9476 17.75 60.4976 17.25 60.4976C16.85 60.4976 16.5 60.1476 16.5 59.6976Z" fill="#7F4121"/>
<path d="M27.5 57.4976C27.5 56.6476 27.85 56.4976 29.5 56.4976C31.75 56.4976 32.35 57.6476 30.4 58.1976C28.3 58.7476 27.5 58.5476 27.5 57.4976Z" fill="#7F4121"/>
<path d="M36.8 51.1976C36.35 47.7476 36.4 46.9976 37.2 46.9976C37.9 46.9976 38.1 47.5476 38.8 51.6476C39.05 53.2476 39 53.4976 38.1 53.4976C37.35 53.4976 37.05 53.0476 36.8 51.1976Z" fill="#7F4121"/>
<path d="M35 42.7475C35 40.7975 35.7 40.4476 36.5 41.9476C37.3 43.4976 37.1 44.4975 36 44.4975C35.2 44.4975 35 44.1475 35 42.7475Z" fill="#7F4121"/>
<path d="M49.25 40.2475C49 40.1475 47.9 39.9475 46.9 39.7475C45.6 39.5475 45 39.1975 45 38.6475C45 37.9975 45.4 37.8975 47.65 38.1975C49.05 38.3475 50.75 38.4975 51.4 38.4975C52.15 38.4975 52.5 38.7975 52.5 39.4975C52.5 40.2475 52.2 40.4975 51.15 40.4475C50.35 40.4475 49.55 40.3475 49.25 40.2475Z" fill="#7F4121"/>
<path d="M64.5 39.6475C64.5 38.8975 65.15 38.5975 67.65 38.0475C73 36.8975 74.65 36.7975 74.4 37.5475C74.15 38.3475 70.25 39.7475 66.9 40.2475C64.75 40.5975 64.5 40.4975 64.5 39.6475Z" fill="#7F4121"/>
<path d="M41.7 35.2975C41.3 33.0975 41.9 30.4976 42.8 30.4976C43.35 30.4976 43.5 31.2976 43.5 33.7476C43.5 36.2476 43.35 36.9976 42.75 36.9976C42.35 36.9976 41.9 36.2975 41.7 35.2975Z" fill="#7F4121"/>
<path d="M31 31.6975C31 29.4975 31.9 29.5975 32.85 31.8975C33.5 33.4475 33.45 33.4975 32.25 33.4975C31.15 33.4975 31 33.2975 31 31.6975Z" fill="#7F4121"/>
<path d="M29 26.6975C29 24.4975 29.9 24.5975 30.85 26.8975C31.5 28.4475 31.45 28.4975 30.25 28.4975C29.15 28.4975 29 28.2975 29 26.6975Z" fill="#7F4121"/>
<path d="M44.15 21.5475C44.6 19.2475 45.9 16.4976 46.45 16.4976C46.75 16.4976 47 17.2976 47 18.2476C47 19.1976 46.8 19.9976 46.5 19.9976C46.25 19.9976 46 20.6976 46 21.4976C46 22.6976 45.8 22.9976 44.95 22.9976C44.05 22.9976 43.9 22.7975 44.15 21.5475Z" fill="#7F4121"/>
<path d="M26 20.2475C26 18.0975 26.5 18.0475 27.65 19.9475C28.75 21.8475 28.75 21.9975 27.25 21.9975C26.15 21.9975 26 21.7975 26 20.2475Z" fill="#7F4121"/>
<path d="M69 20.1975C69 17.9975 69.9 18.0975 70.85 20.3975C71.5 21.9475 71.45 21.9975 70.25 21.9975C69.15 21.9975 69 21.7975 69 20.1975Z" fill="#7F4121"/>
<path d="M23 15.4976C23 14.6976 23.2 13.9976 23.45 13.9976C23.7 13.9976 24.4 14.6976 25 15.4976L26.05 16.9976H24.55C23.15 16.9976 23 16.8476 23 15.4976Z" fill="#7F4121"/>
<path d="M66.5 14.1975C66.5 11.9975 67.4 12.0975 68.35 14.3975C69 15.9475 68.95 15.9975 67.75 15.9975C66.65 15.9975 66.5 15.7975 66.5 14.1975Z" fill="#7F4121"/>
<path d="M49 9.29755C49.65 7.59755 50.65 5.99756 51.1 5.99756C51.55 5.99756 51.65 8.59757 51.2 9.69757C51.05 10.1476 50.35 10.4976 49.7 10.4976C48.65 10.4976 48.6 10.3475 49 9.29755Z" fill="#7F4121"/>
<path d="M58.5 1.29748C58.5 0.347477 58.7 0.147496 59.45 0.347496C60 0.497496 60.8 1.04748 61.3 1.54748C62.15 2.44748 62.1 2.49749 60.35 2.49749C58.75 2.49749 58.5 2.34748 58.5 1.29748Z" fill="#7F4121"/>
<path d="M16.5 59.2975C16.5 58.8475 15.3 58.5475 12 58.3475C7.3 57.9975 3.69999 57.3475 1.39999 56.4475C0.249994 55.9975 0 55.5475 0 54.2475C0 49.9475 4.8 34.2975 8.95 24.9475C13.7 14.3475 18.25 10.4975 22.65 13.3975C25.75 15.4475 28.1 19.8975 33.95 34.8975L35 37.4975H33.75C32.75 37.4975 32.5 37.2475 32.5 36.2475C32.5 35.5475 32.3 34.9975 32 34.9975C31.75 34.9975 31.5 34.4475 31.5 33.7475C31.5 33.0475 31.3 32.4975 31.1 32.4975C30.65 32.4975 29.5 29.5475 29.5 28.3475C29.5 27.8975 29.3 27.4975 29 27.4975C28.75 27.4975 28.5 26.6975 28.5 25.7475C28.5 24.5975 28.25 23.9975 27.8 23.9975C27 23.9975 26.5 22.9475 26.5 21.1975C26.5 20.4475 26.2 19.9975 25.75 19.9975C25.25 19.9975 25 19.4475 25 18.2475C25 16.7475 24.85 16.4975 23.75 16.4975C23.1 16.4975 22.35 16.0975 22.05 15.6475C21.5 14.6475 17.95 14.4475 17.6 15.3975C17.5 15.7475 17.1 15.9975 16.7 15.9975C16.3 15.9975 16 16.3475 16 16.7475C16 17.1475 15.65 17.4975 15.25 17.4975C14.85 17.4975 14.5 17.9475 14.5 18.4475C14.5 18.9975 14.35 19.4975 14.15 19.5975C13.9 19.6975 13.1 21.1475 12.3 22.8975C11.5 24.5975 10.65 25.9975 10.4 25.9975C10.2 25.9975 10 26.5475 10 27.1975C10 27.8975 9.70001 28.7475 9.35001 29.0975C8.95001 29.4475 8.5 30.5975 8.3 31.6475C8.1 32.6475 7.75 33.4975 7.5 33.4975C7.2 33.4975 7 33.8975 7 34.3475C7 35.6475 4.84999 41.9975 4.39999 41.9975C4.19999 41.9975 4 42.4975 4 43.0975C4 43.7475 3.49999 46.4475 2.89999 49.1475C1.94999 53.3975 1.9 54.0975 2.5 54.4975C3.4 55.0475 7.15 55.8975 10.7 56.2975L13.35 56.5975L13.85 54.6975C14.25 52.8975 14.45 52.7475 16.15 52.5975C18 52.4475 18 52.4475 18 54.2475V56.0975L20.65 55.7475C22.05 55.5475 23.7 55.0975 24.25 54.7475C25.45 53.9975 32 53.2975 32.8 53.8475C33.15 54.0475 33.45 54.5975 33.55 55.0475C33.7 55.6475 34.05 55.7475 35.4 55.3975C36.8 55.0475 37 54.7475 37 53.3475C37 52.4475 36.65 50.3975 36.25 48.7475C35.3 44.8475 35.3 42.9975 36.2 42.9975C37.1 42.9975 38.6 49.4475 38.7 53.4475C38.75 56.0475 38.65 56.2475 37.3 56.8975C36.5 57.2975 33.2 57.8475 29.9 58.1475C25.6 58.5475 24 58.8475 24 59.3475C24 59.8475 23.05 59.9975 20.25 59.9975C17.45 59.9975 16.5 59.8475 16.5 59.2975Z" fill="#98603D"/>
<path d="M54.25 42.9975C54.65 41.8975 54.8 40.9475 54.6 40.7975C54.4 40.6975 51.95 40.3475 49.15 39.9975C46.35 39.6475 43.65 39.0975 43.2 38.7975C42.3 38.0975 41.45 34.2975 41.85 32.6475C42.25 30.9475 43.5 31.1975 43.5 32.9475C43.5 35.2975 44 35.9975 45.55 35.9975C46.65 35.9975 47 36.2475 47 36.9475C47 37.6475 47.45 37.9475 48.7 38.0975L50.4 38.2975L50.75 35.6475C51.05 33.0475 51.1 32.9975 52.7 32.9975C54.15 32.9975 54.4 33.1975 54.7 34.5475C54.85 35.3975 55 36.6975 55 37.3475V38.5975L61.65 38.3975C66.55 38.2475 68.8 37.9475 70.4 37.2975C73 36.1975 73.05 35.6475 71.2 28.6975C70.5 25.9475 69.8 23.1475 69.65 22.3975C69.5 21.5975 69.2 20.9975 68.95 20.9975C68.7 20.9975 68.5 20.5475 68.5 19.9475C68.5 19.3975 68.15 18.5975 67.75 18.1975C67.35 17.7475 67 16.8975 67 16.1975C67 15.5475 66.8 14.9975 66.5 14.9975C66.25 14.9975 66 14.4475 66 13.7975C66 13.1475 65.8 12.4975 65.55 12.3975C64.85 12.1475 62.5 7.09751 62.5 5.79751C62.5 4.89751 62.2 4.54752 61.4 4.39752C60.65 4.29752 60.2 3.84752 60.1 3.14752C59.95 2.09752 59.65 1.99753 57.2 1.99753C54.45 1.99753 53.75 1.44753 55.45 0.497526C58.2 -0.952474 61.25 0.797532 64 5.34753C68.65 13.0975 74.75 31.1475 74.4 36.0975C74.25 38.1975 74.25 38.1975 71.25 39.0975C69.6 39.5975 66.65 40.1475 64.65 40.3475C62.3 40.5475 60.95 40.8975 60.8 41.2975C60.65 41.7475 59.75 41.9975 58.55 41.9975C56.75 41.9975 56.55 42.1475 56.25 43.4975C56 44.6475 55.65 44.9975 54.75 44.9975C53.55 44.9975 53.55 44.9475 54.25 42.9975Z" fill="#98603D"/>
<path d="M42 30.0975C42 27.1475 47.7 10.9975 48.9 10.5975C49.95 10.2475 49.55 13.0475 47.95 17.2475C46.15 21.7975 44.05 28.7975 44 30.1475C44 30.6475 43.6 30.9975 43 30.9975C42.4 30.9975 42 30.6475 42 30.0975Z" fill="#98603D"/>
<path d="M50.5 6.59756C50.5 6.34756 51.25 5.14757 52.15 3.94757L53.75 1.74756L53.9 3.49756C54 4.44756 53.85 5.29755 53.55 5.39755C53.25 5.49755 53 5.89755 53 6.29755C53 6.69755 52.5 6.99756 51.75 6.99756C51.05 6.99756 50.5 6.79756 50.5 6.59756Z" fill="#98603D"/>
<path d="M12.25 58.1976C3.1 57.0976 0 56.1476 0 54.4976C0 49.5976 8.4 23.9976 10 23.9976C10.25 23.9976 10.5 24.7976 10.5 25.7476C10.5 26.6976 10.3 27.4976 10 27.4976C9.75 27.4976 9.5 27.8976 9.5 28.3476C9.5 29.5476 8.34999 32.4976 7.89999 32.4976C7.69999 32.4976 7.5 32.8976 7.5 33.3976C7.5 33.8976 6.7 36.6476 5.75 39.4976C4.8 42.3476 4 44.7475 4 44.7975C4 44.9475 6.95 45.4976 9.75 45.8976C13.1 46.3476 14.4 46.1476 14.75 44.9476C15 44.2476 15.55 43.9976 16.8 43.9976C18.35 43.9976 18.5 44.0976 18.5 45.4976V46.9976L21.9 47.0475C23.75 47.0975 25.7 47.0476 26.25 46.9476C29.45 46.3976 33.9 47.1976 34.85 48.4476C36.05 50.0976 36.15 48.2976 35 44.5976C34.35 42.4976 33.6 39.7976 33.3 38.6476C33 37.4476 32.6 36.4976 32.4 36.4976C32.15 36.4976 32 35.9476 32 35.2476C32 34.5476 31.8 33.9976 31.5 33.9976C31.25 33.9976 31 33.1976 31 32.2476C31 28.1976 32.65 30.9976 35.75 40.2476C37.65 45.7476 39.25 53.9976 38.75 55.4976C38.35 56.7476 35.85 57.4476 31 57.7476C28.8 57.8476 28.05 57.7976 29.15 57.5976C30.2 57.3976 31.05 57.0976 31 56.8976C31 56.6476 31 56.1976 31 55.8476C31 55.3976 30.35 55.2976 28.9 55.4476C26.6 55.6476 24.35 56.8475 24.8 57.5475C24.95 57.7975 24.85 57.9976 24.55 57.9976C24.3 57.9976 24 57.7476 23.9 57.4476C23.75 56.9976 23.05 56.9976 21.1 57.4476C19.65 57.7476 17.9 57.9976 17.2 57.9976C16 57.9976 15.95 57.8976 16.2 55.8976C16.4 54.5476 16.35 53.9475 16 54.2975C15.75 54.5475 15.45 55.5476 15.35 56.4976C15.15 58.2976 14.85 58.4976 12.25 58.1976Z" fill="#AC6D38"/>
<path d="M11.5 20.0975C11.5 19.8475 12.3 18.5975 13.25 17.2475C15.9 13.4475 20.5 11.0975 20.5 13.4975C20.5 14.2975 20.15 14.4975 18.8 14.4975C17.4 14.4975 17.05 14.6975 16.9 15.6475C16.8 16.4475 16.35 16.7975 15.4 16.8975C14.15 17.0475 14 17.2975 14 18.7975C14 20.2975 13.85 20.4975 12.75 20.4975C12.05 20.4975 11.5 20.2975 11.5 20.0975Z" fill="#AC6D38"/>
<path d="M16.5 58.9976C16.5 58.6976 18.05 58.4976 20.25 58.4976C22.3 58.4976 24 58.6976 24 58.8976C24 59.0976 22.3 59.3476 20.25 59.3976C18 59.4476 16.5 59.2976 16.5 58.9976Z" fill="#AC6D38"/>
<path d="M54.85 40.9975C54.65 40.1475 54.15 39.9975 51.65 39.9475C46.8 39.8475 43.35 38.9475 42.65 37.4975C41.65 35.5475 41.8 32.0975 42.9 31.8475C43.65 31.6475 43.65 31.5975 42.8 31.5475C41.75 31.4975 41.85 30.1975 43.55 24.2475C45.05 18.9475 45.5 17.9975 46.55 17.9975C47.45 17.9975 47.5 18.4975 47.5 25.2475V32.4975H49H50.5V25.7475V18.9975H52.15H53.85L54.15 23.8975C54.35 26.5475 54.5 29.7475 54.5 30.9975V33.2975L58.15 33.3475C65.95 33.4475 66.8 33.3975 67.85 32.6975C68.45 32.2975 69.65 31.9975 70.5 31.9975C72.25 31.9975 72.25 32.0475 70.2 25.4975C69.55 23.4475 69 21.3475 69 20.8975C69 20.3975 68.8 19.9975 68.5 19.9975C68.25 19.9975 68 19.1975 68 18.2475C68 17.0475 67.75 16.4975 67.25 16.4975C66.8 16.4975 66.5 16.0475 66.5 15.2475C66.5 14.5475 66.3 13.9975 66 13.9975C65.75 13.9975 65.5 13.1975 65.5 12.1975C65.5 10.9975 65.7 10.4975 66.1 10.5975C67.05 10.9475 71.85 23.0975 72.95 27.9975C74.55 34.9975 74.7 36.6975 73.75 37.6475C72.6 38.8475 68.3 39.9475 64.4 40.0975C61.7 40.2475 61 40.3975 60.8 41.1475C60.65 41.7975 60.05 41.9975 57.85 41.9975C55.55 41.9975 55.1 41.8475 54.85 40.9975ZM53.45 37.8975C53.4 37.2475 53.25 36.1975 53.05 35.4975C52.7 34.2975 52.65 34.3475 52.4 35.9975C52.25 36.9475 52.25 38.0475 52.35 38.3975C52.75 39.3975 53.5 39.0975 53.45 37.8975Z" fill="#AC6D38"/>
<path d="M29 27.9476C29 27.3976 28.65 26.5976 28.25 26.1976C27.45 25.3476 27.2 21.9976 28 21.9976C28.55 21.9976 29.1 22.9976 30.45 26.4476L31.5 28.9976H30.25C29.3 28.9976 29 28.7476 29 27.9476Z" fill="#AC6D38"/>
<path d="M25.5 19.9975C25.5 18.9975 25.25 18.4975 24.75 18.4975C24.2 18.4975 24 17.9476 24 16.6976C24 15.0976 24.1 14.9475 24.8 15.5475C25.5 16.0975 28 20.5475 28 21.2475C28 21.3975 27.45 21.4975 26.75 21.4975C25.7 21.4975 25.5 21.2475 25.5 19.9975Z" fill="#AC6D38"/>
<path d="M48.05 11.6476C48.95 9.24755 51.65 4.49756 52.05 4.49756C52.3 4.49756 52.5 5.29756 52.5 6.24756C52.5 7.44756 52.25 7.99756 51.75 7.99756C51.3 7.99756 51 8.44756 51 9.24756C51 11.2976 49.9499 12.9976 48.6999 12.9976C47.6499 12.9976 47.55 12.8976 48.05 11.6476Z" fill="#AC6D38"/>
<path d="M61.5 4.79748C61.5 3.89748 61.1999 3.54749 60.3999 3.39749C59.5499 3.29749 59.2 2.84749 59.1 1.89749C58.85 -0.35251 60 0.147509 62.45 3.19751C64.35 5.54751 64.35 5.9975 62.75 5.9975C61.75 5.9975 61.5 5.74748 61.5 4.79748Z" fill="#AC6D38"/>
<path d="M54.25 1.49755C54.8 0.94755 56 0.397563 56.9 0.197563C58.3 -0.102437 58.5 -0.00245565 58.5 0.897544C58.5 1.94754 57.3 2.49755 54.75 2.49755C53.3 2.49755 53.3 2.49755 54.25 1.49755Z" fill="#AC6D38"/>
<path d="M38 51.8475C38 51.2975 37.35 50.9475 35.75 50.6975C34.5 50.5475 33.3 50.0975 33.1 49.7475C32.4 48.5475 27.9 48.0475 26.7 49.0475C26.25 49.3975 25.5 49.3975 24.05 48.9475C22.4 48.4475 21.6 48.4475 19.95 48.9975C17.6 49.7975 17.05 49.3475 16.95 46.7475C16.95 45.2975 16.9 45.2975 16.4 46.3975C16.1 46.9975 15.5 47.4975 15.05 47.4975C14.6 47.4975 13.7 47.9475 13 48.4975C11.4 49.7475 11.15 49.7475 10.75 48.4975C10.5 47.7475 10 47.4975 8.65002 47.4975C7.65002 47.4975 6.10003 47.2475 5.20003 46.8975C3.75003 46.3975 3.40003 46.4475 2.45003 47.2975L1.40002 48.2475L1.75003 46.4975C1.95003 45.5475 3.10003 41.6975 4.30003 37.9975C8.40003 25.6475 11 20.2975 11 24.4475C11 25.2475 11.25 26.0975 11.5 26.2475C11.8 26.3975 12 28.1475 12 30.0975C12 35.2975 12.3 34.0975 12.7 27.3975C13.05 21.6975 13 21.4975 12 21.4975C11.45 21.4975 11 21.3475 11 21.1975C11 20.6475 13.55 16.5975 14.25 15.9975C14.9 15.4475 15 15.6475 15 17.1475C15 18.3975 14.75 18.9975 14.15 19.1475C13.65 19.2975 13.95 19.3975 14.8 19.4475C16.15 19.4975 16.4 19.7475 16.7 21.0475C16.85 21.8975 17 23.3975 17 24.3475C17 25.2975 17.25 26.5475 17.6 27.1475C18 27.7975 18.3 31.3975 18.5 36.3475C18.65 40.7975 18.85 44.4975 19 44.5975C19.15 44.6975 20.65 44.6975 22.3 44.5975L25.4 44.3975L25.7 42.5975C26 40.4975 27.45 38.9975 29.2 38.9975C30.35 38.9975 30.4 38.7975 30.6 35.9475C30.65 34.2475 30.5 32.2975 30.15 31.5475C29.65 30.3975 29.6 30.5475 29.55 33.3975L29.5 36.4975H27.8C26.2 36.4975 26.1 36.3975 25.8 34.1975C25.65 32.8975 25.5 30.5475 25.5 28.9475C25.5 25.9975 25.5 25.9975 27 25.9975C28 25.9975 28.5 25.7475 28.5 25.2475C28.5 24.8475 28.2 24.4975 27.85 24.4975C27.2 24.4975 26 22.4975 26 21.4475C26 21.1475 25.65 20.5975 25.25 20.1975C24.45 19.3475 24.2 15.9975 24.95 15.9975C26.05 15.9975 33.3 32.6975 36.15 41.7475C37.55 46.2975 38.7 51.9475 38.3 52.3975C38.15 52.5475 38 52.2975 38 51.8475Z" fill="#BA7E4B"/>
<path d="M10.7501 46.6476C10.6001 45.8976 10.4501 41.4476 10.5001 36.7476C10.5001 32.0476 10.3501 28.0476 10.2001 27.8476C9.40008 27.0976 8.45008 29.5976 8.55008 31.9976C8.65008 33.3476 8.55008 34.6475 8.35008 34.7975C8.15008 34.9975 7.95008 34.0476 7.95008 32.6976C7.90008 31.3476 7.80007 30.6976 7.65007 31.2476C7.55007 31.7976 7.30007 32.5976 7.15007 32.9976C7.00007 33.3976 6.90008 33.9476 6.95008 34.2476C7.05008 34.4976 7.15008 36.0976 7.30008 37.7476L7.45008 40.7476L6.80008 38.7476C6.45008 37.6476 5.90008 36.7976 5.55008 36.8976C4.60008 37.0976 5.20008 34.8976 8.00008 27.9976C12.3501 17.2476 15.6501 12.9976 19.7501 12.9976C21.3501 12.9976 22.3001 13.3475 23.5001 14.2975C25.2501 15.7975 28.6501 22.2976 31.5001 29.5976C33.1001 33.5976 33.3001 34.5976 32.7001 34.8476C32.1501 35.0476 32.0001 36.2475 32.0001 40.2975C32.0001 44.5475 31.8501 45.4976 31.2501 45.4976C30.8501 45.4976 30.4001 44.9476 30.2501 44.2476C30.1001 43.5476 29.8501 42.3976 29.7001 41.6476L29.3501 40.2476L29.0001 41.4976C28.7501 42.1976 28.6001 42.3975 28.5501 42.0475C28.5001 41.3975 28.4001 41.3976 27.9001 41.9476C27.4001 42.4976 27.4001 42.6476 27.9001 42.8476C28.2001 42.9976 28.5001 43.2975 28.5001 43.5475C28.5001 43.7475 28.1501 43.8476 27.7501 43.6476C27.3001 43.4976 27.0001 43.5475 27.0501 43.7975C27.2501 44.8975 26.9501 45.9976 26.2501 46.6976C25.5501 47.3476 25.3501 47.3476 24.1001 46.6476C22.8001 45.8976 22.5001 45.8976 20.3501 46.6476C18.6001 47.2476 17.9501 47.2976 17.6501 46.8476C17.4501 46.4976 17.1501 42.5476 17.0001 37.9976C16.8001 32.9976 16.4501 29.2976 16.1001 28.6476C15.7501 28.0476 15.5001 26.5976 15.4501 25.3976C15.4001 24.1976 15.2001 22.6976 14.9501 21.9976C14.6501 21.0976 14.6001 21.4976 14.8001 23.3976C14.9001 24.7976 14.8001 26.3976 14.5501 26.8976C14.2501 27.4476 14.0001 31.3976 13.9001 35.6976C13.7501 42.5976 13.6501 43.6475 12.9001 44.0475C12.3001 44.3975 12.0001 45.1476 12.0001 46.2476C12.0001 48.3476 11.2501 48.5476 10.7501 46.6476ZM27.9501 31.1476C27.9501 30.6476 27.7501 29.7976 27.5001 29.2476C27.1501 28.4476 27.0501 28.6476 27.1001 30.1476C27.1501 31.1476 27.4001 31.9976 27.6001 31.9976C27.8001 31.9976 28.0001 31.5976 27.9501 31.1476Z" fill="#C38B48"/>
<path d="M59 41.4976C59 40.7976 59.35 40.4976 60.05 40.4976C60.8 40.4976 61 40.6975 60.8 41.2975C60.65 41.7475 60.5 42.1975 60.5 42.2975C60.5 42.3975 60.15 42.4976 59.75 42.4976C59.35 42.4976 59 42.0476 59 41.4976Z" fill="#BA7E4B"/>
<path d="M53.35 35.1475C53.15 34.9975 53 34.0475 53 33.0975C53 32.0975 53.15 31.4475 53.3 31.6475C53.5 31.7975 54.5 31.5975 55.65 31.1475C57.35 30.4475 58.1 30.3975 60.5 30.8975C65.2 31.8975 67.5 31.5975 67.5 29.9975C67.5 29.5475 67.95 28.7475 68.5 28.2475C69.45 27.3975 69.45 25.5475 68.5 24.2475C68.25 23.9975 68 22.6475 67.8 21.2475C67.65 19.8975 67.4 17.7475 67.2 16.5475C66.7 13.2975 67.95 14.0975 69.6 18.0475C72.35 24.6475 74.95 35.5475 73.45 34.1475C72.55 33.2975 70.7 33.3475 69.3 34.2475C68.25 34.9475 62.75 35.2975 58.75 34.9475C57.95 34.8475 56.45 34.9475 55.45 35.1475C54.5 35.3475 53.55 35.3475 53.35 35.1475Z" fill="#BA7E4B"/>
<path d="M51.4 34.7476C51.25 34.5976 50.05 34.3976 48.7 34.3476L46.25 34.2476L46 26.7476L45.7 19.2476L45.5 26.2476L45.25 33.1976L43.55 33.5475L41.85 33.8976L42.15 31.3476C42.45 28.1476 44.6 20.5476 46.6 15.3976C47.95 11.7476 48.15 11.4976 49.55 11.4976C50.95 11.4976 51 11.5476 51 13.9976C51 16.3976 51.05 16.4976 52.45 16.4976C53.85 16.4976 53.85 16.5476 54.2 20.3476C54.7 26.4976 54.6 28.4976 53.75 28.4976C53 28.4976 52.6 26.9476 52.35 22.7476C52.25 21.1976 52.15 21.7976 52.1 24.3976C52.05 26.6476 51.8 28.4976 51.55 28.4976C51.3 28.4976 50.95 25.7976 50.75 22.4976C50.4 16.6976 50.4 16.4976 49.25 16.4976C47.75 16.4976 47.5 17.4976 47.15 24.8976L46.85 30.9976H49.45H52V32.9976C52 34.9976 51.9 35.2476 51.4 34.7476Z" fill="#BA7E4B"/>
<path d="M17.5 13.7975C17.5 12.8475 20.2 12.2975 21.45 12.9975C23.2 13.8975 22.65 14.4975 20 14.4975C18.15 14.4975 17.5 14.2975 17.5 13.7975Z" fill="#BA7E4B"/>
<path d="M64.8 12.1976C64.35 10.9476 64.45 8.49756 65 8.49756C65.5 8.49756 66.2 9.59757 67 11.6976C67.45 12.8476 67.35 12.9976 66.3 12.9976C65.65 12.9976 64.95 12.6476 64.8 12.1976Z" fill="#BA7E4B"/>
<path d="M49.5 8.74754C50.4 6.44754 53.45 2.04755 54.8 1.19755C56.7 -0.10245 59.3 0.0475498 60.65 1.44755L61.75 2.59754L59.15 2.34754C57.6 2.14754 56.5 2.24754 56.5 2.49754C56.5 2.79754 56.15 2.99754 55.75 2.99754C55.35 2.99754 55 3.34754 55 3.74754C55 4.19754 54.65 4.64753 54.25 4.79753C53.85 4.99753 53.5 5.39753 53.5 5.79753C53.5 6.19753 53.15 6.49754 52.75 6.49754C52.35 6.49754 52 6.94755 52 7.44755C52 9.14755 51.4 9.99754 50.2 9.99754C49.15 9.99754 49.1 9.84754 49.5 8.74754Z" fill="#BA7E4B"/>
<path d="M62 5.24751C62 3.09751 62.5 3.04752 63.65 4.94752C64.75 6.84752 64.75 6.99751 63.25 6.99751C62.15 6.99751 62 6.79751 62 5.24751Z" fill="#BA7E4B"/>
<path d="M33.55 47.2975C32.8 46.3975 32.95 40.4475 33.8 38.0475L34.35 36.3475L35.65 40.5475C36.4 42.8475 37.15 45.4975 37.3 46.4475C37.65 48.0475 37.6 48.0975 36.55 47.5475C35.85 47.1475 35.5 47.1475 35.5 47.4975C35.5 48.2475 34.2 48.0975 33.55 47.2975Z" fill="#C38B48"/>
<path d="M53.3 33.6475C53.15 33.4475 53 31.1975 52.95 28.5475C52.9 25.8975 52.7 22.3975 52.5 20.7475C52.25 18.3975 52.15 19.3975 52.05 25.3475L52 32.9475L50.25 32.6475C49.25 32.4975 48.2 32.5975 47.8 32.9475C46.45 34.0975 46.05 32.3475 46 24.6975C45.9 16.3975 46.1 15.4975 50.05 7.89749C53.95 0.497494 57.35 -1.3525 61.2 1.9975C63.55 4.0975 70.55 18.6975 69.8 19.9475C69.65 20.1975 69.85 20.6475 70.25 20.9975C70.65 21.3475 70.85 21.8475 70.65 22.1475C70.45 22.4475 70.2 22.2975 69.95 21.6975C69.65 20.8975 69.55 20.8975 69.55 21.5975C69.5 22.0475 69.95 22.7475 70.55 23.1475C71.55 23.8975 73.3 28.9975 72.5 28.9975C72.25 28.9975 72 28.6975 71.9 28.3975C71.6 27.5975 69.05 30.3975 69 31.4975C69 32.8475 67.25 33.4475 64.15 33.2475C62.55 33.0975 60.6 32.7975 59.75 32.5975C58.7 32.2975 57.6 32.4475 55.95 33.0475C54.65 33.5475 53.5 33.7975 53.3 33.6475Z" fill="#C38B48"/>
<path d="M43.7 29.7476C43.85 29.3476 43.7 28.9976 43.4 28.9976C42.7 28.9976 43.15 26.1976 44.45 22.1976L45.45 19.2476L45.25 22.2476C45.15 23.8976 45.05 26.4476 45.05 27.8976C45 29.9476 44.85 30.4976 44.2 30.4976C43.7 30.4976 43.5 30.1976 43.7 29.7476Z" fill="#C38B48"/>
<path d="M16.5 59.4976C16.5 58.8476 16.85 58.4976 17.5 58.4976C18.15 58.4976 18.5 58.8476 18.5 59.4976C18.5 60.1476 18.15 60.4976 17.5 60.4976C16.85 60.4976 16.5 60.1476 16.5 59.4976Z" fill="#CE9B60"/>
<path d="M17.4 126.148C15.6 125.698 16.4 124.498 18.5 124.498C20.4 124.498 20.5 124.398 20.5 122.998C20.5 121.848 20.7 121.498 21.5 121.498C22.35 121.498 22.5 121.848 22.5 123.698C22.5 125.548 22.3 125.948 21.4 126.198C20.15 126.498 18.7 126.498 17.4 126.148Z" fill="#CEBF9D"/>
<path d="M14 124.048C13.2 122.498 13.4 121.498 14.5 121.498C15.3 121.498 15.5 121.848 15.5 123.248C15.5 125.198 14.8 125.548 14 124.048Z" fill="#CEBF9D"/>
<path d="M21 116.748C21 116.098 21.25 113.848 21.55 111.748C22.05 108.598 22.25 107.998 23.05 107.998C24.15 107.998 24.15 107.998 23.5 111.548C23.25 113.048 22.9 115.098 22.75 116.148C22.4 118.248 21 118.798 21 116.748Z" fill="#CEBF9D"/>
<path d="M13 107.398C13 105.898 13.65 104.498 14.3 104.498C14.75 104.498 15 105.098 15 106.248C15 107.648 14.8 107.998 14 107.998C13.45 107.998 13 107.698 13 107.398Z" fill="#CEBF9D"/>
<path d="M23 105.748C23 104.348 23.2 103.998 24 103.998C25.05 103.998 25.2 104.498 24.7 106.398C24.2 108.198 23 107.748 23 105.748Z" fill="#CEBF9D"/>
<path d="M24.5 101.248C24.5 100.048 24.75 99.4976 25.25 99.4976C25.75 99.4976 26 98.9976 26 97.9976C26 95.6976 27 93.9976 28.35 93.9976C28.95 93.9976 29.5 94.0976 29.5 94.1976C29.5 94.8976 25.35 102.998 25 102.998C24.7 102.998 24.5 102.198 24.5 101.248Z" fill="#CEBF9D"/>
<path d="M14.5 95.6476C14.5 95.2476 15.3 89.9976 15.75 87.1476C15.95 86.1476 16.35 85.4976 16.75 85.4976C17.65 85.4976 17.65 85.8975 16.9 91.5475C16.4 95.2975 16.2 95.9976 15.4 95.9976C14.9 95.9976 14.5 95.8476 14.5 95.6476Z" fill="#CEBF9D"/>
<path d="M31.5 88.2476C31.5 86.6476 31.6 86.4976 33 86.4976H34.5L33.4 88.2476C31.95 90.4476 31.5 90.4476 31.5 88.2476Z" fill="#CEBF9D"/>
<path d="M21.5 87.7476C21.5 86.3476 21.7 85.9976 22.5 85.9976C23.55 85.9976 23.7 86.4976 23.2 88.3976C22.7 90.1976 21.5 89.7476 21.5 87.7476Z" fill="#CEBF9D"/>
<path d="M35 83.2975C35 81.6475 35.1 81.4976 36.55 81.4976H38.05L37 82.9976C35.45 85.1976 35 85.2475 35 83.2975Z" fill="#CEBF9D"/>
<path d="M16 83.3976C16 81.8976 16.65 80.4976 17.3 80.4976C17.75 80.4976 18 81.0976 18 82.2476C18 83.6476 17.8 83.9976 17 83.9976C16.45 83.9976 16 83.6976 16 83.3976Z" fill="#CEBF9D"/>
<path d="M28.5001 82.4975C30.0501 80.2975 30.5001 80.2475 30.5001 82.1975C30.5001 83.8475 30.4001 83.9975 28.9501 83.9975H27.4501L28.5001 82.4975Z" fill="#CEBF9D"/>
<path d="M16.5 78.3976C16.5 76.8976 17.15 75.4976 17.8 75.4976C18.25 75.4976 18.5 76.0976 18.5 77.2476C18.5 78.6476 18.3 78.9976 17.5 78.9976C16.95 78.9976 16.5 78.6976 16.5 78.3976Z" fill="#CEBF9D"/>
<path d="M22.5 76.7476C22.5 75.3476 22.7 74.9976 23.5 74.9976C24.55 74.9976 24.7 75.4976 24.2 77.3976C23.7 79.1976 22.5 78.7476 22.5 76.7476Z" fill="#CEBF9D"/>
<path d="M35.4501 73.6476C36.0001 72.8476 37.1001 71.4476 37.9501 70.4976L39.4501 68.7476L39.5001 70.6476C39.5001 72.1476 39.3501 72.4976 38.5001 72.4976C37.7501 72.4976 37.5001 72.8476 37.5001 73.7476C37.5001 74.7976 37.2501 74.9976 35.9501 74.9976H34.4501L35.4501 73.6476Z" fill="#CEBF9D"/>
<path d="M42 73.2975C42 71.6475 42.1 71.4976 43.55 71.4976H45.05L44 72.9976C42.45 75.1976 42 75.2475 42 73.2975Z" fill="#CEBF9D"/>
<path d="M17 67.2476C17 64.8476 17.1 64.4976 18 64.4976C18.9 64.4976 19 64.8476 19 67.2476C19 69.6476 18.9 69.9976 18 69.9976C17.1 69.9976 17 69.6476 17 67.2476Z" fill="#CEBF9D"/>
<path d="M22.5 66.4976C22.5 63.8476 22.65 62.9976 23.2 62.9976C24.05 62.9976 24.5 64.5476 24.5 67.6476C24.5 69.6476 24.35 69.9976 23.5 69.9976C22.6 69.9976 22.5 69.6476 22.5 66.4976Z" fill="#CEBF9D"/>
<path d="M47.5 65.7975C47.5 64.3475 47.7 63.9976 48.5 63.9976C49.3 63.9976 49.5 63.6476 49.5 62.4976C49.5 61.6976 49.75 60.9976 50 60.9976C50.3 60.9976 50.5 60.6476 50.5 60.2476C50.5 59.8476 50.75 59.4976 51 59.4976C51.3 59.4976 51.5 59.1476 51.5 58.7476C51.5 58.3476 51.95 57.9976 52.5 57.9976C53.3 57.9976 53.5 57.6476 53.5 56.4976C53.5 54.9476 55.4 50.4976 56.1 50.4976C56.3 50.4976 56.5 49.9476 56.5 49.2476C56.5 48.2476 56.75 47.9976 57.75 47.9976H59L57.95 50.6476C56.2 55.1476 49.5 66.2976 48 67.2476C47.7 67.4476 47.5 66.8475 47.5 65.7975Z" fill="#CEBF9D"/>
<path d="M42.5001 64.2975C44.5501 61.2975 45.0001 61.0975 45.0001 63.1975C45.0001 64.1975 44.8001 64.9975 44.5001 64.9975C44.2501 64.9975 44.0001 65.3475 44.0001 65.7475C44.0001 66.2475 43.5001 66.4975 42.5001 66.4975H40.9501L42.5001 64.2975Z" fill="#CEBF9D"/>
<path d="M16.7501 60.9976C16.3001 58.9976 16.7501 58.4976 18.8001 58.4976C20.1501 58.4976 20.5001 58.6976 20.5001 59.4976C20.5001 60.1476 20.1501 60.4976 19.5001 60.4976C18.8501 60.4976 18.5001 60.8476 18.5001 61.4976C18.5001 63.0476 17.1001 62.6476 16.7501 60.9976Z" fill="#CEBF9D"/>
<path d="M22 60.4476C22 58.7976 22.15 58.4475 22.9 58.5975C23.5 58.6975 23.8 59.2975 23.9 60.6475C24.05 62.2475 23.9 62.4975 23.05 62.4975C22.15 62.4975 22 62.1976 22 60.4476Z" fill="#CEBF9D"/>
<path d="M45.5 60.1976C45.5 59.9976 46.4 58.4475 47.45 56.7975C50 52.6975 53.7 45.2976 54.5 42.5976L55.15 40.4976H57.85C60.85 40.4976 60.8 40.4976 59.95 44.4976C59.6 46.1976 59.15 46.9976 58.65 46.9976C58 46.9976 57.9 46.5476 58.1 44.7476C58.35 42.7976 58.25 42.4976 57.5 42.4976C56.9 42.4976 56.45 42.9976 56.25 43.9976C56.05 44.8476 55.7 45.4976 55.45 45.4976C55.2 45.4976 55 45.9476 55 46.4976C55 48.2476 52.35 52.9976 51.4 52.9976C50.7 52.9976 50.5 53.3976 50.5 54.7476C50.5 55.9476 50.25 56.4976 49.75 56.4976C49.3 56.4976 49 56.9476 49 57.7476C49 58.4476 48.8 58.9976 48.5 58.9976C48.25 58.9976 48 59.3476 48 59.7476C48 60.1976 47.55 60.4976 46.75 60.4976C46.05 60.4976 45.5 60.3476 45.5 60.1976Z" fill="#CEBF9D"/>
<path d="M20.5 122.748C20.5 121.348 20.7 120.998 21.5 120.998C22.55 120.998 22.7 121.498 22.2 123.398C21.7 125.198 20.5 124.748 20.5 122.748Z" fill="#DECDAB"/>
<path d="M17.15 66.4976C17.1 62.8476 17.15 62.4976 18.05 62.4976C18.9 62.4976 19 62.8976 19 66.4976C19 69.9976 18.9 70.4976 18.1 70.4976C17.35 70.4976 17.2 69.9476 17.15 66.4976Z" fill="#DECDAB"/>
<path d="M22 61.9975C22 60.5475 21.95 60.4975 19.5 60.4975C17.7 60.4975 17 60.2975 17 59.7975C17 58.8975 17.65 58.6975 20.8 58.5475L23.35 58.4475L23.65 60.3475C24.15 63.1975 24.1 63.4975 23 63.4975C22.2 63.4975 22 63.1475 22 61.9975Z" fill="#DECDAB"/>
<path d="M54.15 43.9976C55.4 40.6476 56.5 40.0476 56.5 42.7476C56.5 43.6976 56.3 44.4976 56 44.4976C55.75 44.4976 55.5 45.0476 55.5 45.7476C55.5 46.7476 55.25 46.9976 54.3 46.9976H53.05L54.15 43.9976Z" fill="#DECDAB"/>
<path d="M58.5 42.4976C58.5 41.3476 58.7 40.9976 59.5 40.9976C60.6 40.9976 60.65 41.1476 60.2 42.8976C59.75 44.5476 58.5 44.2976 58.5 42.4976Z" fill="#DECDAB"/>
<path d="M13.5 103.648C13.5 102.798 15.15 91.0975 15.75 87.6475C16.1 85.5975 17.5 85.3975 17.5 87.3975C17.5 88.1475 17.05 91.5475 16.5 94.9975C15.95 98.4475 15.5 101.998 15.5 102.898C15.5 104.148 15.3 104.498 14.5 104.498C13.9 104.498 13.5 104.148 13.5 103.648Z" fill="#DCD4BE"/>
<path d="M14.5 125.048C13.8 123.648 13.85 123.498 15.25 123.498C16.25 123.498 16.5 123.748 16.5 124.748C16.5 126.248 15.25 126.448 14.5 125.048Z" fill="#DCD4BE"/>
<path d="M20.5 121.748C20.5 119.848 20.65 119.498 21.5 119.498C22.55 119.498 22.8 120.648 22.2 122.898C21.65 124.948 20.5 124.198 20.5 121.748Z" fill="#DCD4BE"/>
<path d="M13.3 121.398C12.8 119.498 12.95 118.998 14 118.998C14.8 118.998 15 119.348 15 120.748C15 122.748 13.8 123.198 13.3 121.398Z" fill="#DCD4BE"/>
<path d="M21.2 113.748C21.6 109.698 23.85 100.798 24.5 100.598C24.8 100.498 25 99.9476 25 99.3476C25 97.7476 25.75 96.8976 26.85 97.0976C27.85 97.2476 27.85 97.3476 26.45 100.748C25.15 103.948 23.5 110.398 22.75 115.148C22.55 116.398 22.2 116.998 21.65 116.998C21 116.998 20.9 116.548 21.2 113.748Z" fill="#DCD4BE"/>
<path d="M13 108.148C13 106.448 13.6 104.998 14.3 104.998C14.8 104.998 15 105.648 15 106.998C15 108.648 14.85 108.998 14 108.998C13.4 108.998 13 108.648 13 108.148Z" fill="#DCD4BE"/>
<path d="M27.5 95.0475C27.5 93.0975 27.95 91.9976 28.8 91.9976C29.2 91.9976 29.5 91.4976 29.5 90.7476C29.5 90.0476 29.75 89.4976 30 89.4976C30.3 89.4976 30.5 89.1476 30.5 88.7476C30.5 88.3476 30.95 87.9976 31.5 87.9976C32.3 87.9976 32.5 87.6476 32.5 86.4976C32.5 85.6976 32.75 84.9976 33 84.9976C33.3 84.9976 33.5 84.6476 33.5 84.2476C33.5 83.8476 33.75 83.4976 34 83.4976C34.3 83.4976 34.5 83.1476 34.5 82.7476C34.5 82.3476 34.85 81.9976 35.25 81.9976C35.65 81.9976 36 81.5476 36 80.9976C36 80.4476 36.25 79.9976 36.5 79.9976C36.8 79.9976 37 79.6476 37 79.2476C37 78.8476 37.25 78.4976 37.5 78.4976C37.8 78.4976 38 78.1476 38 77.7476C38 77.2976 38.35 76.8476 38.75 76.6976C39.15 76.4976 39.5 76.0976 39.5 75.6976C39.5 75.2976 39.75 74.9976 40 74.9976C40.3 74.9976 40.5 74.6476 40.5 74.2476C40.5 73.8476 40.75 73.4976 41 73.4976C41.3 73.4976 41.5 73.1476 41.5 72.7476C41.5 72.3476 41.85 71.9976 42.25 71.9976C42.65 71.9976 43 71.5476 43 70.9976C43 70.4476 43.35 69.9976 43.75 69.9976C44.15 69.9976 44.5 69.5476 44.5 68.9976C44.5 68.4476 44.85 67.9976 45.25 67.9976C45.65 67.9976 46 67.5476 46 66.9976C46 66.4476 46.25 65.9976 46.5 65.9976C46.8 65.9976 47 65.6476 47 65.2476C47 64.8476 47.2 64.4976 47.45 64.4976C47.7 64.4976 48 64.0476 48.15 63.4976C48.3 62.9476 48.75 62.4976 49.2 62.4976C49.7 62.4976 50 62.0476 50 61.2476C50 60.5476 50.25 59.9976 50.5 59.9976C50.8 59.9976 51 59.6476 51 59.2476C51 58.8476 51.2 58.4976 51.45 58.4976C51.7 58.4976 52.05 57.9476 52.2 57.2476C52.45 56.3476 52.85 55.9976 53.75 55.9976C54.45 55.9976 55 56.1976 55 56.3976C55 56.9976 50.75 63.6476 47.65 67.8976C41.55 76.1976 32.75 88.8976 30.6 92.5976C29.3 94.7476 28.1 96.4976 27.9 96.4976C27.65 96.4976 27.5 95.8475 27.5 95.0475Z" fill="#DCD4BE"/>
<path d="M21.25 91.4975C21.05 90.9475 21.1 89.2475 21.25 87.7475C21.55 85.4975 21.8 84.9975 22.55 84.9975C23.6 84.9975 23.7 85.7475 23 88.7475C22.75 89.8475 22.65 90.7975 22.7 90.8975C22.8 90.9475 24.3499 88.8475 26.1499 86.1475C27.9499 83.4475 31.95 78.0975 35 74.2475C40.75 67.0475 47.25 57.7475 49.75 53.1475C51.35 50.1475 52 49.8476 52 51.9476C52 53.8976 51.55 54.9975 50.7 54.9975C50.3 54.9975 50 55.4975 50 56.2475C50 57.0475 49.7 57.4975 49.25 57.4975C48.8 57.4975 48.5 57.9475 48.5 58.7475C48.5 59.4475 48.3 59.9975 48 59.9975C47.75 59.9975 47.5 60.3475 47.5 60.7475C47.5 61.1475 47.3 61.4975 47 61.4975C46.75 61.4975 46.5 61.8475 46.5 62.2475C46.5 62.6475 46.3 62.9975 46 62.9975C45.75 62.9975 45.5 63.3475 45.5 63.7475C45.5 64.1475 45.3 64.4975 45 64.4975C44.75 64.4975 44.5 64.8475 44.5 65.2475C44.5 65.6475 44.15 65.9975 43.75 65.9975C43.35 65.9975 43 66.4475 43 66.9975C43 67.5475 42.8 67.9975 42.5 67.9975C42.25 67.9975 42 68.3475 42 68.7975C42 69.2475 41.55 69.6975 41 69.8475C40.45 69.9975 40 70.5475 40 71.0475C40 71.6475 39.65 71.9975 39 71.9975C38.25 71.9975 38 72.3475 38 73.2475C38 74.0475 37.7 74.4975 37.25 74.4975C36.8 74.4975 36.5 74.9475 36.5 75.5475C36.5 76.1475 36.1 76.6975 35.5 76.8475C34.95 76.9975 34.5 77.5475 34.5 78.0975C34.5 78.6475 34.05 79.1975 33.5 79.3475C32.95 79.4975 32.5 80.0475 32.5 80.5475C32.5 81.0975 32.15 81.4975 31.75 81.4975C31.35 81.4975 31 81.9475 31 82.4975C31 83.0475 30.65 83.4975 30.25 83.4975C29.85 83.4975 29.5 83.9475 29.5 84.4975C29.5 85.0475 29.3 85.4975 29 85.4975C28.75 85.4975 28.5 85.8475 28.5 86.2475C28.5 86.6475 28.3 86.9975 28 86.9975C27.75 86.9975 27.5 87.3475 27.5 87.7475C27.5 88.1475 27.3 88.4975 27.05 88.4975C26.8 88.4975 26.45 89.0475 26.3 89.7475C26.1 90.4475 25.75 90.9975 25.5 90.9975C25.2 90.9975 25 91.3475 25 91.7475C25 92.9975 21.65 92.7475 21.25 91.4975Z" fill="#DCD4BE"/>
<path d="M16.25 82.1476C16.7 77.1476 17 75.9976 17.8 75.9976C18.6 75.9976 18.65 77.0476 18.15 82.1476C17.9 84.9976 17.6999 85.4976 16.8999 85.4976C15.9999 85.4976 15.95 85.2476 16.25 82.1476Z" fill="#DCD4BE"/>
<path d="M22 81.9976C22 79.8476 22.15 79.4976 23 79.4976C23.75 79.4976 24 79.8476 24 80.8976C24 82.9976 23.45 84.4976 22.7 84.4976C22.2 84.4976 22 83.7976 22 81.9976Z" fill="#DCD4BE"/>
<path d="M22.5 72.4976C22.5 68.1476 22.65 66.9976 23.2 66.9976C24.1 66.9976 24.5 68.5976 24.5 72.4976C24.5 76.3976 24.1 77.9976 23.2 77.9976C22.65 77.9976 22.5 76.8476 22.5 72.4976Z" fill="#DCD4BE"/>
<path d="M17 71.3976C17 68.9976 17.5 67.4976 18.3 67.4976C18.8 67.4976 19 68.2476 19 70.2476C19 72.6476 18.9 72.9976 18 72.9976C17.2 72.9976 17 72.6476 17 71.3976Z" fill="#DCD4BE"/>
<path d="M56 50.7975C56 49.7975 56.2 48.9976 56.4 48.9976C56.6 48.9976 57.1 47.6476 57.45 45.9976C58 43.5476 58.3 42.9976 59.1 42.9976C60 42.9976 60.05 43.1976 59.75 44.8476C59.25 47.4976 57.3 52.1476 56.6 52.3976C56.2 52.4976 56 51.9975 56 50.7975Z" fill="#DCD4BE"/>
<path d="M19.65 63.6476L17 63.4476V61.1976V58.9976H20.25C23.1 58.9976 23.5 59.0976 23.5 59.9476C23.5 60.4476 23.65 61.5976 23.8 62.4476C24.1 63.7476 24 63.9976 23.2 63.8976C22.65 63.8476 21.05 63.7476 19.65 63.6476Z" fill="#F0D9AF"/>
<path d="M14.35 124.398C13.95 123.498 13.45 121.798 13.25 120.648C12.95 118.748 13.05 118.498 13.85 118.498C14.55 118.498 14.9 119.098 15.4 121.148C16.5 125.848 15.9 127.698 14.35 124.398Z" fill="#EDE0C8"/>
<path d="M20.5 120.498C20.5 118.848 20.65 118.498 21.5 118.498C22.55 118.498 22.75 119.298 22.2 121.398C21.65 123.348 20.5 122.748 20.5 120.498Z" fill="#EDE0C8"/>
<path d="M21.5 111.248C21.5 109.848 21.7 109.498 22.5 109.498C23.55 109.498 23.7 109.998 23.2 111.898C22.7 113.698 21.5 113.248 21.5 111.248Z" fill="#EDE0C8"/>
<path d="M13 108.898C13 107.398 13.65 105.998 14.3 105.998C14.75 105.998 15 106.598 15 107.748C15 109.148 14.8 109.498 14 109.498C13.45 109.498 13 109.198 13 108.898Z" fill="#EDE0C8"/>
<path d="M14.25 98.3976C14.85 94.0976 15.1 93.4976 15.85 93.4976C16.5 93.4976 16.6 93.9476 16.3 96.1476C16.15 97.5476 16 99.1476 16 99.6476C16 100.198 15.6 100.498 14.95 100.498C14 100.498 13.95 100.298 14.25 98.3976Z" fill="#EDE0C8"/>
<path d="M28.5 92.7476C28.5 91.1976 28.65 90.9976 29.75 90.9976C31.25 90.9976 31.25 91.1475 30.15 93.0475C29 94.9475 28.5 94.8976 28.5 92.7476Z" fill="#EDE0C8"/>
<path d="M21 91.2476C21 90.0476 21.25 89.4976 21.75 89.4976C22.15 89.4976 22.5 89.8476 22.5 90.2476C22.5 91.2476 23 91.1976 23.8 90.1476C24.4 89.3476 24.45 89.4476 24.5 91.1476C24.5 92.9476 24.45 92.9976 22.75 92.9976C21.1 92.9976 21 92.8976 21 91.2476Z" fill="#EDE0C8"/>
<path d="M31 88.7476C31 87.7976 31.25 86.9976 31.5 86.9976C31.8 86.9976 32 86.6476 32 86.2476C32 85.7476 32.5 85.4976 33.5 85.4976H35L33.4 87.9976C32.5 89.3476 31.6 90.4976 31.4 90.4976C31.15 90.4976 31 89.6976 31 88.7476Z" fill="#EDE0C8"/>
<path d="M16 85.3976C16 83.8976 16.65 82.4976 17.3 82.4976C17.75 82.4976 18 83.0976 18 84.2476C18 85.6476 17.8 85.9976 17 85.9976C16.45 85.9976 16 85.6976 16 85.3976Z" fill="#EDE0C8"/>
<path d="M16.5 80.8976C16.5 79.3976 17.15 77.9976 17.8 77.9976C18.25 77.9976 18.5 78.5976 18.5 79.7476C18.5 81.1476 18.3 81.4976 17.5 81.4976C16.95 81.4976 16.5 81.1976 16.5 80.8976Z" fill="#EDE0C8"/>
<path d="M36.5 72.4975C38.05 70.2975 38.5 70.2475 38.5 72.1975C38.5 73.8475 38.4 73.9975 36.95 73.9975H35.45L36.5 72.4975Z" fill="#EDE0C8"/>
<path d="M17 72.8976C17 71.3976 17.65 69.9976 18.3 69.9976C18.75 69.9976 19 70.5976 19 71.7476C19 73.1476 18.8 73.4976 18 73.4976C17.45 73.4976 17 73.1976 17 72.8976Z" fill="#EDE0C8"/>
<path d="M45.5 68.2975C45.5 66.6475 45.6 66.4976 47.05 66.4976H48.55L47.5 67.9976C45.95 70.1976 45.5 70.2475 45.5 68.2975Z" fill="#EDE0C8"/>
<path d="M51.5 50.2476C51.5 49.5476 53.1 46.9976 53.5 46.9976C53.8 46.9976 54 47.7976 54 48.7476C54 50.2976 53.85 50.4976 52.75 50.4976C52.05 50.4976 51.5 50.3976 51.5 50.2476Z" fill="#EDE0C8"/>
<path d="M20.5 119.498C20.5 117.848 20.65 117.498 21.5 117.498C22.55 117.498 22.75 118.298 22.2 120.398C21.65 122.348 20.5 121.748 20.5 119.498Z" fill="#F7E7C8"/>
<path d="M14.15 123.648C12.65 119.748 13 107.498 14.9 93.9975C15.75 88.0975 16.6 81.4475 16.75 79.2475C17.45 69.3475 17.55 68.7475 18.2 69.7475C18.7 70.6475 20.4 71.0975 21 70.4975C21.15 70.3475 21.7 69.9975 22.25 69.6975C22.8 69.3975 23.4 68.4975 23.6 67.6975C24.2 65.2975 23.6 84.9975 23 88.1475C22.7 89.7975 22.5 91.1975 22.65 91.2975C22.75 91.3975 24.2 89.3975 25.85 86.8975C27.5 84.3475 31.4 78.9975 34.6 74.9975C41.35 66.4475 45.8 60.0975 49.75 53.2475C53.25 47.2475 52.85 47.7475 53.6 48.3475C54.35 48.8975 57.05 48.8475 57.95 48.2475C58.45 47.9475 58.5 48.1475 58.25 49.0475C56.95 53.4975 53.2 59.9475 46.5 69.2475C39.85 78.4475 32.9 88.4975 31.1 91.2475C28.7 95.0975 25.7 101.798 24.5 105.998C23.3 110.348 22 118.998 22 123.148V125.998H18.55H15.1L14.15 123.648Z" fill="#F7ECD3"/>
<path d="M17.15 65.7476L17.05 58.9976H20.2H23.3501L23.7 61.6476C23.85 63.0476 24 65.8976 24 67.8976C24 70.7476 23.85 71.4976 23.25 71.4976C22.85 71.4976 22.5 71.7476 22.5 71.9976C22.5 72.2976 21.3 72.4976 19.9 72.4976H17.25L17.15 65.7476ZM19 60.9976C19 60.4476 18.8 59.9976 18.5 59.9976C18.25 59.9976 18 60.4476 18 60.9976C18 61.5476 18.25 61.9976 18.5 61.9976C18.8 61.9976 19 61.5476 19 60.9976ZM23 61.2476C23 60.8476 22.8 60.4976 22.5 60.4976C22.25 60.4976 22 60.8476 22 61.2476C22 61.6476 22.25 61.9976 22.5 61.9976C22.8 61.9976 23 61.6476 23 61.2476Z" fill="#F7E7C8"/>
<path d="M51 51.2975C51 51.1975 51.65 49.7476 52.45 48.1476C53.3 46.4976 54.25 44.2476 54.6 43.0976L55.25 40.9976H57.85H60.5L60.15 42.6476C60 43.4976 59.4 45.6976 58.8 47.4976L57.75 50.7476L55.65 50.5976C54.35 50.4976 53.5 50.6476 53.5 50.9476C53.5 51.2476 52.95 51.4976 52.25 51.4976C51.55 51.4976 51 51.3975 51 51.2975Z" fill="#F7E7C8"/>
</svg>
