<svg width="54" height="128" viewBox="0 0 54 128" fill="none" xmlns="http://www.w3.org/2000/svg">
<path d="M31.1553 83.2692C30.9093 83.0642 28.7775 82.8182 26.3588 82.7362C23.6121 82.6542 21.7673 82.4083 21.4393 82.0803C21.1524 81.7933 19.8815 81.5884 18.4057 81.5884C16.4379 81.5884 15.659 81.3834 14.7571 80.6865C13.8142 79.9895 13.1583 79.8256 10.8625 79.9076C8.03386 79.9896 5.77911 79.3746 4.83621 78.2677C4.59024 77.9398 4.01631 76.341 3.56536 74.7421C2.86844 72.0774 2.82744 71.7905 3.44237 71.6265C3.89332 71.5035 3.81133 71.4215 3.1964 71.3805C2.33549 71.3395 0.613696 69.4537 0.0807562 67.9779C-0.124221 67.404 0.0397558 67.24 0.818668 67.24H1.84355V62.1565C1.84355 58.7129 2.00754 56.9911 2.29451 56.9091C2.66346 56.7861 2.66346 56.5402 2.29451 55.8842C1.39261 54.1624 2.17152 45.1435 3.31939 43.8316C3.64735 43.5037 3.89332 42.7247 3.89332 42.1508C3.89332 41.0849 4.54925 40.593 5.98409 40.593C6.47604 40.593 6.763 40.306 6.763 39.7731C6.763 39.2811 6.47603 38.9532 6.10707 38.9532C5.53314 38.9532 5.49214 38.6662 5.65612 37.4363C5.8201 36.5754 6.06607 35.8375 6.27105 35.7555C6.43503 35.7145 6.51703 34.8946 6.43504 33.9517C6.31206 32.7628 6.43504 32.1069 6.845 31.8199C7.25495 31.492 7.54192 30.3441 7.6649 28.0894C7.86988 24.8507 8.5258 22.9239 9.83766 21.5711C10.2476 21.1611 10.3296 20.9152 10.0426 20.9152C9.75566 20.9152 10.2066 20.0133 11.0265 18.8654C11.9284 17.6355 12.5844 16.0777 12.7893 14.8889C13.0763 13.29 13.3223 12.8801 14.0602 12.7981C14.8801 12.6751 14.9621 12.4291 14.9621 10.4614C14.9621 8.53457 15.0851 8.16561 16.028 7.50968C16.6429 7.09972 17.6268 6.23883 18.2417 5.6239C19.1846 4.64001 19.6356 4.47603 20.9474 4.59902C22.2183 4.68101 22.5462 4.55802 22.6692 3.98408C22.7512 3.57413 22.5462 3.28716 22.1773 3.28716C20.9064 3.28716 21.5623 2.54923 23.6531 1.48335C25.2929 0.663443 26.3998 0.41748 28.4906 0.41748C31.8522 0.41748 33.0001 1.11439 33.0001 3.12317C33.0001 4.35303 33.123 4.51702 34.0659 4.51702C35.2958 4.51702 37.7555 6.32082 38.5754 7.87865C38.9034 8.49358 39.1494 9.64145 39.1494 10.4204C39.1494 11.7322 39.2723 11.8552 40.5022 11.9782C41.6911 12.1012 41.937 12.3881 43.4539 15.3398C44.8067 18.0455 45.0937 19.0294 45.1347 21.2841C45.1757 22.76 45.2987 24.2768 45.4217 24.6048C45.9956 26.1216 46.5285 28.5813 46.5285 29.6472C46.5285 30.3031 46.6925 30.7131 46.8975 30.5491C47.4304 30.2621 49.3982 32.8858 49.3982 33.8697C49.3982 34.3207 49.8082 34.8536 50.3411 35.0586C51.12 35.4275 51.243 35.8375 51.366 38.0512C51.448 40.06 51.366 40.6749 50.833 40.8389C50.3821 41.0439 50.2181 41.6999 50.2181 43.6266C50.2181 45.0205 50.3821 46.3323 50.5871 46.5373C50.8331 46.7833 51.079 47.7672 51.161 48.792C51.284 49.8169 51.448 50.9238 51.612 51.2518C53.1698 55.1873 53.4978 60.1068 52.2679 61.4186C51.7759 61.9106 51.612 62.3615 51.8579 62.5255C52.1039 62.6485 52.2679 63.7144 52.2679 64.8622C52.2679 66.5431 52.1449 66.953 51.489 67.117C50.751 67.322 50.6691 67.7319 50.6691 72.2414C50.6281 74.9471 50.5461 77.3248 50.3821 77.5298C50.2591 77.7348 49.7262 77.8988 49.1522 77.8988C48.4143 77.8988 48.1684 78.1037 48.1684 78.7597C48.1684 79.9895 45.5037 82.4083 44.1508 82.4083C41.1991 82.4083 35.2138 82.9412 34.8858 83.2692C34.3529 83.7611 31.6472 83.7611 31.1553 83.2692ZM27.5477 67.363C27.4247 66.953 27.3427 67.281 27.3427 68.0599C27.3427 68.8388 27.4247 69.1668 27.5477 68.7978C27.6297 68.3878 27.6297 67.7319 27.5477 67.363ZM11.4365 52.1127C11.5595 51.9077 11.3955 51.6617 11.0675 51.4977C10.6986 51.3747 10.4526 51.4977 10.4526 51.8667C10.4526 52.5226 11.1085 52.6866 11.4365 52.1127ZM19.0616 47.7672C19.8405 46.9063 19.9225 46.7423 19.3486 46.7423C18.6107 46.7423 17.0118 47.9311 17.0118 48.4641C17.0118 49.12 18.1187 48.7511 19.0616 47.7672ZM42.429 38.2152C42.429 38.0513 41.7731 37.9693 40.9942 38.0512C40.2152 38.1332 39.5593 38.2972 39.5593 38.3792C39.5593 38.4612 40.2152 38.5432 40.9942 38.5432C41.7731 38.5432 42.429 38.3792 42.429 38.2152ZM8.40282 34.3207C8.40282 33.9107 8.23884 33.7057 7.99286 33.8287C7.78789 33.9517 7.58291 34.5666 7.58291 35.1816C7.58291 36.0425 7.6649 36.1655 7.99286 35.6735C8.19784 35.3456 8.40282 34.7306 8.40282 34.3207ZM25.4569 30.7541C25.6209 30.0572 25.5389 29.8522 25.2519 30.1391C25.0469 30.3851 24.76 31.574 24.637 32.8038C24.391 35.1816 24.473 34.9766 25.4569 30.7541ZM17.7088 28.0074C17.6268 27.3514 17.5448 27.8844 17.5448 29.1143C17.5448 30.3441 17.6268 30.8771 17.7088 30.2621C17.7908 29.6062 17.7908 28.6223 17.7088 28.0074ZM19.4716 13.208C19.4716 13.0031 18.9386 12.9211 18.2417 13.0441C17.5858 13.126 17.0118 13.29 17.0118 13.372C17.0118 13.454 17.5858 13.536 18.2417 13.536C18.9386 13.536 19.4716 13.372 19.4716 13.208Z" fill="#7F4121"/>
<path d="M33.0821 57.1961L31.6882 55.7612H33.0001C34.3119 55.7612 34.8039 56.3352 34.5579 57.811C34.4349 58.5899 34.3119 58.5489 33.0821 57.1961Z" fill="#9E4825"/>
<path d="M15.6591 47.6852C15.7821 47.2752 16.2331 46.6193 16.684 46.2094C17.3809 45.5124 17.4219 45.5124 17.4219 46.9473C17.4219 48.2181 17.2989 48.3821 16.397 48.3821C15.6181 48.3821 15.4541 48.2181 15.6591 47.6852Z" fill="#9E4825"/>
<path d="M21.8494 41.4948C20.4556 41.2079 21.0295 40.183 22.5463 40.183C23.6942 40.183 23.9812 40.347 23.9812 40.9619C23.9812 41.7408 23.5712 41.8638 21.8494 41.4948Z" fill="#9E4825"/>
<path d="M26.6868 13.331C26.5638 12.9621 26.6048 12.3061 26.8508 11.8962C27.1378 11.3632 27.0558 10.7073 26.6458 9.68243L26.0309 8.2066H27.4657C28.4496 8.2066 28.9006 8.41159 28.9006 8.78055C28.9006 9.10851 29.3105 9.68244 29.8435 10.0514C30.4584 10.5433 30.5814 10.8303 30.2534 10.9533C29.9664 11.0763 29.7205 11.4042 29.7205 11.7322C29.7205 12.0602 29.5155 12.3061 29.2285 12.3061C28.9825 12.3061 28.3266 12.6751 27.8347 13.167C27.0558 13.905 26.9328 13.905 26.6868 13.331Z" fill="#9E4825"/>
<path d="M31.4423 81.5063C31.5653 80.3175 31.6883 80.1535 32.7951 80.1535C33.902 80.1535 34.025 80.3175 34.148 81.5063C34.271 82.7772 34.23 82.8182 32.7951 82.8182C31.3603 82.8182 31.3193 82.7772 31.4423 81.5063ZM33.533 82.1623C33.984 81.7113 33.4101 81.1784 32.7951 81.4244C32.4672 81.5883 32.3032 81.8343 32.4262 82.0393C32.6721 82.4902 33.1641 82.5312 33.533 82.1623Z" fill="#9E4825"/>
<path d="M20.0046 78.5137C19.8816 77.3248 20.0046 77.0789 20.7015 77.0789C21.3575 77.0789 21.5214 77.3658 21.5214 78.5137C21.5214 79.6206 21.3575 79.9485 20.8245 79.9485C20.2916 79.9485 20.0456 79.5796 20.0046 78.5137Z" fill="#9E4825"/>
<path d="M40.7892 64.6983C40.7892 64.4113 41.5272 63.5504 42.4291 62.8125L44.0689 61.4597V62.8125C44.0689 63.5504 43.9049 64.3703 43.7409 64.5753C43.29 65.2312 40.7892 65.3132 40.7892 64.6983Z" fill="#9E4825"/>
<path d="M15.4131 32.1889C15.9051 31.41 16.438 30.754 16.643 30.754C16.8479 30.754 17.0119 31.41 17.0119 32.1889C17.0119 33.5007 16.9299 33.6237 15.7821 33.6237H14.5932L15.4131 32.1889Z" fill="#B96F42"/>
<path d="M31.6883 79.7436C31.8932 78.1448 32.7541 77.8168 33.1641 79.2516C33.574 80.8095 33.4511 81.1784 32.4672 81.1784C31.6473 81.1784 31.5243 81.0144 31.6883 79.7436Z" fill="#B96F42"/>
<path d="M35.4598 84.663C35.4598 83.6791 35.2549 83.2282 34.8449 83.2282C34.5169 83.2282 34.23 83.4331 34.23 83.6791C34.23 84.1301 33.533 84.0891 29.6385 83.3922C27.7527 83.0642 27.5887 82.1623 29.3515 81.7933C30.0484 81.6293 30.9503 81.1784 31.3603 80.7684C32.0162 80.1125 32.0572 79.7845 31.6473 78.5137C31.2783 77.2838 31.0733 77.0788 30.3764 77.2838C29.8845 77.4068 28.3266 77.8168 26.8508 78.1447C22.4233 79.1696 22.1363 79.2926 22.1363 80.1535C22.1363 80.7684 22.6283 81.0964 24.3091 81.5474C25.5389 81.8753 26.4408 82.3672 26.4408 82.6542C26.4408 83.3921 24.637 83.3921 22.0953 82.6132C20.9885 82.2853 19.2257 81.9983 18.1598 81.9983C17.0529 81.9983 16.192 81.8343 16.192 81.5883C16.192 81.3834 15.823 81.1784 15.3721 81.1784C14.7162 81.1784 14.5522 80.8914 14.5522 79.7436C14.5522 78.7597 14.3472 78.3087 13.9373 78.3087C13.6093 78.3087 13.3223 78.0627 13.3223 77.7348C13.3223 76.5049 9.59173 69.7407 8.77183 69.4947C7.82893 69.1667 6.23012 70.1096 5.36921 71.4625C4.50831 72.7743 5.16424 76.6279 6.4351 77.5708C6.96804 77.9398 7.70594 78.5547 8.1159 78.8827C8.48486 79.2516 8.81282 79.3746 8.81282 79.1696C8.81282 78.9646 9.75572 78.7187 10.8626 78.6367C12.5844 78.5547 12.9124 78.6367 12.9124 79.2516C12.9124 79.6206 13.1173 79.9485 13.3223 79.9485C13.5683 79.9485 13.7323 80.3585 13.7323 80.8094C13.7323 81.6293 13.6093 81.6703 11.3955 81.3834C7.95192 80.9734 7.17301 80.7684 7.17301 80.0715C7.17301 79.6616 6.92704 79.5796 6.3941 79.7436C5.86116 79.9075 5.24622 79.6616 4.63129 79.0466L3.7294 78.1447L4.71329 77.8578C5.61518 77.6118 5.65618 77.5708 4.87726 77.5298C4.13935 77.4888 3.97537 77.1609 3.7704 75.1931C3.56542 73.3893 3.15546 72.3644 1.88461 70.5196C0.121803 68.0189 -0.206162 66.83 0.818723 66.83C1.55664 66.83 1.63863 66.1331 0.982702 65.9281C0.613743 65.8051 0.654741 65.5182 1.0237 64.7802C1.51564 63.8783 1.47465 62.4025 0.777725 58.5489C0.531753 57.2371 0.613743 56.9911 1.18768 56.9911C2.62252 56.9911 2.95048 57.934 2.99147 62.0745C3.03247 65.4772 3.15546 66.2561 3.81138 66.912C4.83627 67.9369 6.47609 67.3219 7.37799 65.6411C8.52586 63.3454 7.82894 60.5577 5.57419 58.5079C4.87727 57.893 4.30333 57.1141 4.30333 56.7861C4.30333 56.3762 3.89338 56.1712 3.07347 56.1712C1.96659 56.1712 1.84361 56.0482 1.84361 54.9413C1.84361 54.0804 1.63863 53.7115 1.18768 53.7115C0.654739 53.7115 0.57275 53.3835 0.818723 51.5797C1.22868 48.5461 1.67963 47.5622 2.66352 47.5622C3.6474 47.5622 3.7294 48.5051 2.86849 50.1859C2.17157 51.4977 2.04858 53.3015 2.66352 53.3015C2.90949 53.3015 3.07347 53.5475 3.07347 53.8755C3.07347 54.2034 3.40143 54.8593 3.81138 55.3513C4.38532 56.0482 4.75428 56.1712 5.65617 55.9662C7.173 55.5563 9.09979 53.5885 9.42776 52.1126C9.79671 50.3908 8.9768 47.7671 7.54197 46.1273C5.90215 44.2825 4.42632 44.2005 3.7704 45.9223C3.19646 47.3982 2.25356 47.5622 2.25356 46.1273C2.25356 45.5534 2.08958 45.1024 1.84361 45.1024C0.777727 45.1024 1.55664 43.1757 3.27845 41.6178C5.4922 39.5271 6.47608 37.3953 6.10713 35.4275C5.73817 33.5418 6.23011 31.164 6.96803 31.164C7.29599 31.164 7.58296 30.795 7.58296 30.3441C7.58296 29.7702 7.29599 29.5242 6.72206 29.5242C5.98414 29.5242 5.86115 29.3602 6.06613 28.4173C6.43509 26.5315 7.95192 23.3749 8.44387 23.3749C8.81283 23.3749 8.85382 24.2358 8.68984 26.4905C8.48487 29.4012 8.52586 29.7292 9.67373 31.6969C10.3707 32.8858 11.2315 34.0747 11.6005 34.3616C12.1744 34.8126 12.1335 34.8536 11.3135 34.8536C10.5346 34.8536 10.3707 35.0176 10.5346 35.8375C10.6986 36.6164 10.3706 37.1903 9.38676 38.1742C7.66495 39.814 7.50098 41.9868 8.89482 44.2005C9.50975 45.2254 9.63274 45.7174 9.30477 45.8404C8.52586 46.0863 8.73083 46.7423 9.63273 46.7423C10.1657 46.7423 10.4526 47.0292 10.4526 47.4802C10.4526 47.8901 10.9856 48.833 11.6005 49.5709C12.5434 50.7188 12.9534 50.9238 13.8553 50.6778C14.6752 50.4728 15.0441 50.0219 15.4131 48.792C15.7001 47.8901 16.233 46.8653 16.6839 46.4963C17.3809 45.8404 17.4219 45.8404 17.4219 47.1112C17.4219 48.0951 17.6268 48.5051 18.2418 48.669C19.1847 48.915 19.2257 49.4479 18.6107 52.5226C18.0778 55.1463 18.5287 56.6221 20.7835 59.5738C22.7923 62.2795 25.129 63.0994 26.1129 61.5006C26.3999 61.0497 26.9738 60.6807 27.3427 60.6807C27.7527 60.6807 28.0807 60.3937 28.0807 60.0658C28.0807 59.7378 27.9167 59.4508 27.7117 59.4508C27.2198 59.4508 28.0397 56.9911 28.7366 56.2942C29.0236 56.0072 29.8025 55.7612 30.4994 55.7612C31.7702 55.7612 31.7702 55.7613 30.9913 56.5402C30.1304 57.4011 29.7205 58.6719 28.8186 63.7553C28.2856 66.502 28.2856 67.281 28.7366 68.5518C29.4745 70.6426 30.7864 72.3644 32.3442 73.1843C33.533 73.8402 33.82 73.8402 34.8449 73.3483C35.4598 73.0203 36.5667 72.0774 37.2226 71.2165C38.2065 69.9866 38.5345 69.2077 38.6575 67.2809C38.8624 64.5752 38.7805 64.4523 34.9679 59.3688C33.656 57.647 32.5902 56.0072 32.5902 55.8022C32.5902 55.3923 30.6634 55.1463 28.9006 55.3103C28.4906 55.3513 27.9987 54.6134 27.5067 53.2195C26.3179 49.7349 25.334 48.4641 23.5712 47.9311C22.2183 47.5212 21.8084 47.5622 20.9065 48.1361C19.9226 48.792 19.8816 48.792 19.8816 47.9721C19.8816 47.4392 19.5946 47.1522 19.0617 47.1522C18.0368 47.1522 17.9548 46.9062 17.6678 43.3806C17.4629 40.9209 17.5448 40.5929 18.1598 40.5929C18.5287 40.5929 18.0778 40.142 17.1349 39.6501C12.5844 37.2313 11.0266 34.0337 14.4292 34.0337C14.7572 34.0337 15.2901 33.7467 15.6181 33.4188C15.987 33.0908 16.069 32.8038 15.823 32.8038C15.5361 32.8038 15.5361 32.4759 15.782 31.738C16.028 31.164 16.192 29.2782 16.192 27.5154C16.192 23.8258 15.5361 22.76 13.0353 22.309C11.7235 22.063 11.3955 22.186 10.6166 23.1289C9.42775 24.4818 9.34576 24.4817 9.14078 23.0059C9.0178 22.063 9.30477 21.3661 10.2887 20.0953C12.0105 17.9225 12.5024 16.4057 12.6664 12.7571C12.8714 8.94449 13.8143 7.42768 15.864 7.75565C16.028 7.75565 17.2579 6.68975 18.6107 5.37789C21.8494 2.18025 26.1129 0.00750732 29.1875 0.00750732C31.9342 0.00750732 33.1231 0.581433 32.7951 1.68831C32.6311 2.09826 32.7131 2.46723 32.9591 2.46723C33.1641 2.46723 33.4511 2.87718 33.533 3.41012C33.656 4.02505 33.738 3.86107 33.779 2.87718L33.861 1.44235L35.0909 2.87718C36.0338 3.98406 36.1568 4.35301 35.6648 4.43501C35.3368 4.517 35.0499 4.92694 35.0499 5.37789C35.0499 5.99283 35.3368 6.15682 36.4847 6.15682C37.6736 6.15682 38.0835 6.40278 38.7395 7.50966C39.1904 8.20658 39.5594 9.39544 39.5594 10.0924C39.5594 11.1582 39.7643 11.4452 40.7072 11.6502C42.3061 11.9782 43.5359 13.085 44.2738 14.8888C44.8478 16.2417 44.8478 16.4057 44.2738 16.4057C43.9459 16.4057 43.6589 16.6106 43.6589 16.8156C43.6589 17.0616 43.9049 17.2256 44.1918 17.2256C44.5198 17.2256 44.9708 17.9225 45.2167 18.8244C45.8727 20.9562 45.8317 21.3251 44.9708 21.3251C44.4378 21.3251 44.0279 20.8332 43.6589 19.6033C42.634 16.1597 40.7892 13.126 39.7234 13.126C38.9444 13.126 37.9196 15.2988 37.9196 16.8976C37.9606 17.6765 38.6165 19.4803 39.5184 21.1201L41.0762 23.9898L43.3719 23.8668L45.6677 23.7439L45.9137 25.3017C46.3236 28.0074 47.0205 30.0981 47.7994 31.246C48.6193 32.3529 48.8243 33.6237 48.2504 33.6237C48.0454 33.6237 47.6355 33.1728 47.3485 32.5988C46.6926 31.328 46.4466 31.328 45.0938 32.5168C43.9049 33.5417 43.003 37.1493 43.7409 38.0102C44.8478 39.3631 47.1435 38.2972 47.7994 36.0835C48.0864 35.1816 48.4554 34.4436 48.6604 34.4436C48.8243 34.4436 48.9883 34.1567 48.9883 33.7467C48.9883 33.1318 49.0293 33.1318 49.7672 33.7877C50.1772 34.1567 50.8331 35.2225 51.2431 36.1244C51.981 37.6823 51.981 37.8873 51.284 40.7979C50.7921 42.8477 50.3822 43.8726 49.9722 43.8726C49.6442 43.8726 49.3983 43.4626 49.3983 42.8887C49.3983 41.2489 48.6604 39.773 47.8404 39.773C46.8156 39.773 46.1186 40.552 46.1186 41.8228C46.1186 43.4216 45.6677 44.6925 45.1347 44.6925C44.8478 44.6925 44.3148 43.7086 43.9459 42.4787C43.044 39.732 42.47 39.1991 40.7072 39.6091C39.9693 39.773 39.2314 39.896 39.0674 39.855C38.8624 39.814 38.7395 40.06 38.7395 40.388C38.7395 40.7159 38.2885 41.9458 37.7146 43.1347C37.1406 44.2825 36.6897 45.6764 36.6897 46.2093C36.6897 46.9472 36.4437 47.1522 35.6238 47.1522C35.0499 47.1522 34.7219 46.9882 34.8449 46.7423C34.9679 46.5373 35.2549 45.3074 35.4598 44.0366C35.7468 42.1918 35.7058 41.4539 35.1319 40.142C34.4759 38.5842 33.4101 37.9693 33.4101 39.1171C33.4101 39.5271 32.5901 39.773 30.6634 39.978C29.1055 40.142 27.4247 40.511 26.8918 40.8799C26.0719 41.4129 25.9489 41.7408 26.1539 43.2576C26.2359 44.2415 27.0148 46.3733 27.8347 48.0541C28.7366 49.7759 29.1875 51.0878 28.9416 51.1698C28.6956 51.2517 28.4906 51.6207 28.4906 51.9487C28.4906 52.3586 28.7366 52.4816 29.1465 52.3176C29.5975 52.1536 30.0484 52.3586 30.4174 52.8916C31.1143 53.9165 32.0162 53.9574 32.5492 53.0145C32.9181 52.3586 32.9591 52.4406 33.0001 53.3835C33.0001 53.9984 33.4511 54.9823 33.984 55.6383L34.9679 56.7861L36.4027 55.2693C37.1816 54.4494 37.9196 53.3015 38.0835 52.7276C38.3705 51.5387 37.3866 48.792 36.6897 48.792C36.4847 48.792 35.7468 49.5299 35.1319 50.4318C33.3691 52.9736 32.7131 52.0717 34.025 48.915C34.5169 47.8081 34.8039 47.5622 35.8698 47.5622C37.2636 47.5622 37.5506 47.7671 39.3134 50.1449C40.0923 51.1698 40.2973 51.6617 39.9283 51.7027C38.9854 51.7847 41.3222 52.3996 42.634 52.4406C43.3309 52.4406 44.3148 52.1126 44.8478 51.7027C45.3807 51.2927 46.1596 51.0468 46.5696 51.1288C47.1845 51.2928 47.3485 51.1288 47.3485 50.2679C47.3485 49.6939 47.1845 49.202 47.0205 49.202C46.8566 49.202 46.4466 48.5051 46.1186 47.6851C45.7907 46.8242 45.4627 46.0043 45.3807 45.8404C45.2987 45.6354 45.5037 45.5124 45.8727 45.5124C46.2416 45.5124 46.5286 45.3074 46.5286 45.0204C46.5286 44.6515 46.6516 44.6515 47.0205 45.0204C47.7175 45.7174 49.3983 45.6354 49.3983 44.8975C49.3983 43.5036 50.1362 44.4465 50.5871 46.4553C52.063 53.0555 53.0469 57.811 53.2928 59.3688C53.5388 60.9267 53.4978 61.0906 52.7189 61.0906C51.981 61.0906 51.858 60.8447 51.858 59.2459C51.858 56.8271 50.6691 52.0717 50.0132 51.7847C49.2343 51.4977 45.3397 53.3015 44.8478 54.2034C44.5608 54.7774 44.6018 55.1463 45.0938 55.5973C45.4627 55.9662 46.2006 57.1141 46.7336 58.18C47.9224 60.5987 48.7014 61.2546 49.9722 61.0087C51.0381 60.8037 51.448 61.2956 51.448 62.7714C51.448 63.3454 51.735 63.5504 52.5139 63.5504C53.4978 63.5504 53.5798 63.6733 53.3338 64.8212C53.2108 65.5591 52.6779 66.461 52.1859 66.871C51.325 67.6499 51.325 67.6499 52.1859 67.6499C53.3748 67.6499 52.9239 69.0437 51.4071 70.1506C50.7511 70.6016 50.2182 71.3395 50.2182 71.7904C50.2182 72.2004 50.0542 72.5694 49.8082 72.5694C49.6032 72.5694 49.3983 72.8153 49.3983 73.1023C49.3983 73.6762 47.5125 74.9061 47.1435 74.5371C47.0205 74.4551 47.3485 73.6352 47.7994 72.7333C48.2914 71.8724 48.9473 70.6426 49.2343 70.0686C49.8902 68.8798 49.6852 67.8549 48.7013 67.4859C47.7174 67.117 47.1845 67.7729 46.1596 70.6836C45.0937 73.6762 45.1347 75.2751 46.2416 75.1931C46.6516 75.1521 46.9385 75.398 46.9385 75.808C46.9385 76.2999 47.0205 76.3409 47.3075 75.931C47.5535 75.521 47.7174 75.562 47.8814 76.218C48.1274 77.1609 49.3983 76.9969 49.3983 76.013C49.3983 74.7831 50.1362 75.521 50.3002 76.9149C50.5461 79.0056 48.7833 80.7684 46.4876 80.7684C44.5608 80.7684 44.4378 80.1945 46.1186 79.3336C46.8156 78.9646 47.3485 78.5137 47.3485 78.3087C47.3485 77.7758 45.6267 76.6689 44.7658 76.6689C44.0279 76.6689 43.9869 76.4229 44.1918 74.1272C44.3148 72.6923 44.6838 70.5606 45.0528 69.3717C45.7907 66.83 45.3397 65.3132 43.7819 64.9442C42.2651 64.5343 42.593 63.5504 44.2329 63.5504C45.2577 63.5504 45.7087 63.7554 45.9137 64.3293C46.0366 64.7802 46.8156 65.4362 47.6355 65.8051C49.4803 66.707 51.0381 66.1331 51.0381 64.6162C51.0381 63.7963 50.6281 63.3864 48.9063 62.5255C47.7174 61.9106 46.6106 61.2546 46.4876 61.0087C46.3236 60.7627 46.0776 60.9677 45.9137 61.4596C45.7497 62.0336 45.2987 62.3205 44.6428 62.3205C43.4949 62.3205 43.4539 62.1155 44.2738 60.6807C44.6018 60.1068 44.8478 59.2868 44.8888 58.8359C44.8888 57.4831 42.798 54.6134 41.3222 53.9165C39.6004 53.0965 38.6985 53.5475 37.2636 55.9662C36.6897 56.9911 36.0338 57.811 35.8288 57.811C35.5828 57.811 35.6238 58.016 35.8698 58.3439C36.0748 58.5899 37.0177 59.9838 37.9606 61.4186C39.0264 63.0174 40.0103 64.0423 40.6253 64.2063C41.4862 64.4113 41.5272 64.5343 41.0352 64.9442C40.1743 65.6002 37.9196 72.6103 38.2065 73.7172C38.3705 74.4551 38.6985 74.6191 40.0103 74.6191C41.3222 74.6191 41.6091 74.7421 41.6091 75.439C41.6091 76.136 41.3222 76.2589 39.9693 76.2589C39.1084 76.2589 37.4686 76.054 36.3207 75.808C34.8039 75.48 34.066 75.521 33.3691 75.849C31.4423 76.8739 33.533 81.0144 36.4437 81.9983C37.4686 82.3263 38.3705 82.2033 40.9122 81.4244L44.0689 80.4405V81.3424C44.0689 82.1623 43.6179 82.4082 40.5843 83.2691C37.5096 84.1301 37.0996 84.335 37.0996 85.1549C37.0996 85.8109 36.8537 86.0978 36.2797 86.0978C35.6238 86.0978 35.4598 85.8109 35.4598 84.663ZM33.82 81.7933C33.82 81.4654 33.4511 81.1784 33.0001 81.1784C32.5492 81.1784 32.1802 81.4654 32.1802 81.7933C32.1802 82.1213 32.5492 82.4082 33.0001 82.4082C33.4511 82.4082 33.82 82.1213 33.82 81.7933ZM19.9226 80.1125C20.3325 79.6206 20.3325 79.0876 20.0046 77.8578C19.6766 76.6279 19.7176 76.2589 20.1276 76.2589C20.4145 76.2589 20.9065 76.136 21.2754 76.013C21.7264 75.849 21.9314 75.972 21.9314 76.4229C21.9314 77.1199 22.3413 77.2018 25.006 77.0788C26.7278 76.9969 29.8435 75.849 30.2944 75.1111C30.5814 74.6191 27.3837 70.1096 26.7688 70.1096C26.2359 70.1096 22.3413 74.0862 22.3413 74.6601C22.3413 74.9061 22.0543 75.0291 21.7264 74.8651C21.3574 74.7421 21.1114 74.8651 21.1114 75.2341C21.1114 75.972 19.7586 76.054 18.6927 75.398C16.8889 74.2502 13.9782 76.5459 14.8801 78.4727C15.2901 79.4156 17.5039 80.7274 18.6927 80.7684C19.0617 80.7684 19.5946 80.4815 19.9226 80.1125ZM14.8801 74.9061C15.4951 74.2092 13.4043 70.9295 12.3794 70.9295C11.4775 70.9295 11.6825 71.9544 12.9944 74.1272C13.8553 75.562 14.2242 75.726 14.8801 74.9061ZM37.3866 74.4141C37.5096 74.0452 37.5096 73.6762 37.3866 73.5533C36.9767 73.1433 35.4598 73.8402 35.4598 74.4551C35.4598 75.234 37.0587 75.1931 37.3866 74.4141ZM22.0133 72.9383C24.5551 70.9296 26.0309 68.9618 26.0309 67.6089C26.0309 63.3044 21.3574 61.5416 16.069 63.8783C14.5522 64.5343 13.9782 65.1082 13.4863 66.2561C12.9124 67.6499 12.9124 67.9369 13.5273 69.5767C14.4702 71.9544 15.987 73.7172 17.5448 74.1682C19.2257 74.6601 20.1276 74.3732 22.0133 72.9383ZM4.87726 70.2736C5.24622 70.1506 5.53319 69.8637 5.53319 69.6997C5.53319 69.4127 3.03248 68.0599 2.49954 68.0599C1.9666 68.0599 2.29456 68.9208 3.07347 69.6997C3.97537 70.6016 3.97537 70.6016 4.87726 70.2736ZM12.0925 66.1741C12.0925 64.4933 12.4614 63.5504 13.1173 63.5504C13.4043 63.5504 14.4292 62.8535 15.3721 61.9925C16.8479 60.6807 17.1349 60.1888 17.0939 58.9999C17.0939 58.221 17.0529 56.9091 17.0119 56.0892C17.0119 55.2283 16.7659 54.5314 16.52 54.5314C15.6181 54.5314 12.9534 53.0965 12.9124 52.6046C12.9124 52.2766 12.4204 52.1126 11.8055 52.1126C10.8216 52.1946 10.7806 52.1946 11.6005 52.3586C12.8304 52.6046 12.7484 52.9736 11.2316 53.8755C10.5756 54.2854 9.67373 55.2693 9.30477 56.0892C8.93582 56.9501 8.44387 57.729 8.19789 57.934C7.95192 58.098 7.95193 58.3439 8.27989 58.5489C8.52586 58.7129 8.85382 59.3279 9.0178 59.9428C9.30477 61.0497 11.0676 63.1404 11.7235 63.1404C12.6254 63.1404 11.9695 63.9193 10.8626 64.1653C8.77183 64.6162 8.48486 66.1331 10.2067 67.9779C10.9856 68.8798 11.0676 68.8798 11.5595 68.2239C11.8465 67.8139 12.0925 66.912 12.0925 66.1741ZM8.19789 67.6499C7.09102 67.158 6.76306 67.158 6.76306 67.6499C6.76306 67.8959 7.25499 68.0599 7.91092 68.0189C8.89481 68.0189 8.93581 67.9779 8.19789 67.6499ZM27.8757 64.1243C27.9987 63.0994 28.0397 62.1565 27.9167 62.0335C27.5887 61.6646 26.4408 62.7305 26.4408 63.3864C26.4408 63.7143 26.1949 63.9603 25.9489 63.9603C25.5799 63.9603 25.5799 64.0833 25.8669 64.2883C26.1129 64.4523 26.3998 64.9032 26.5638 65.3132C27.0148 66.543 27.5887 66.0511 27.8757 64.1243ZM20.2915 60.9677C20.2915 60.3117 19.4716 59.4508 18.8157 59.4508C18.2828 59.4508 17.7498 60.8857 18.1598 61.2546C18.6107 61.7466 20.2915 61.5006 20.2915 60.9677ZM17.8318 51.4977C17.8318 51.0468 17.6678 50.3908 17.4629 50.0629C17.1349 49.5709 16.9709 49.5709 16.438 49.9809C15.6591 50.6368 15.5771 52.1126 16.274 52.8096C16.9299 53.4655 17.8318 52.6866 17.8318 51.4977ZM50.1362 48.956C49.9312 47.9311 48.7014 47.2752 48.1274 47.8491C47.3895 48.5871 48.0044 49.6119 49.1933 49.6119C49.9722 49.6119 50.2592 49.407 50.1362 48.956ZM24.719 45.3074C24.76 45.2664 24.719 44.4055 24.5551 43.4626C24.3501 42.2738 24.0221 41.6588 23.5302 41.5358C22.2593 41.2079 22.5873 40.183 23.9401 40.183C24.924 40.183 25.088 40.06 24.924 39.3631C24.801 38.9121 24.5551 38.5432 24.3911 38.5432C24.1861 38.5432 23.8171 37.4773 23.5712 36.2064C23.1612 34.3206 23.1612 33.2548 23.6122 31C24.1041 28.2533 24.1041 28.1713 23.2022 27.3924C21.9314 26.4085 20.3325 26.0396 19.5126 26.5315C19.0207 26.8595 18.8977 27.4744 18.9797 29.2372C19.1027 31.205 18.9797 31.6969 17.8728 33.2138C17.1759 34.1977 16.6019 35.2226 16.6019 35.5505C16.6019 35.8375 16.438 36.0835 16.192 36.0835C15.987 36.0835 15.782 35.7145 15.782 35.2635C15.782 34.2387 14.7162 34.1977 14.2242 35.1816C13.6503 36.2474 14.0602 36.8624 15.5771 37.1493C16.315 37.2723 17.8318 37.8462 18.8977 38.3792C19.9636 38.9121 21.0705 39.3631 21.3984 39.3631C21.6854 39.3631 21.9314 39.5271 21.9314 39.7321C21.9314 40.7569 21.3574 41.4129 20.4555 41.4129C19.4306 41.4129 19.3076 41.7408 19.4716 44.0776C19.5126 44.7745 19.7586 45.4304 20.0456 45.5944C20.4145 45.8404 24.3501 45.5944 24.719 45.3074ZM6.76306 42.6017C6.76306 41.6588 5.61518 41.5358 5.24622 42.4787C5.00025 43.1347 5.86116 43.9956 6.4351 43.6266C6.59908 43.5036 6.76306 43.0527 6.76306 42.6017ZM38.3295 39.5681C38.7395 39.0761 38.7395 38.8301 38.3295 38.3382C37.3046 37.1083 35.8288 38.0512 36.4437 39.5681C36.5667 39.896 36.9357 40.183 37.2226 40.183C37.5506 40.183 38.0425 39.896 38.3295 39.5681ZM50.4232 38.9941C50.7101 38.0922 49.8492 36.0015 49.2753 36.2064C48.4554 36.4524 48.2094 38.0103 48.8243 38.9121C49.6032 39.978 50.0952 40.019 50.4232 38.9941ZM33.1231 38.1742C33.574 38.1332 34.107 37.5593 34.4349 36.7394C34.9679 35.4685 34.9679 35.0996 34.271 33.0908C33.2051 29.9751 32.2622 28.7043 30.5814 28.0074C29.1875 27.3924 29.1055 27.4334 28.0397 28.6223C27.3427 29.4012 26.7278 30.7541 26.4408 32.1479C26.1539 33.6647 25.7849 34.4436 25.375 34.4436C24.924 34.4436 24.842 34.7306 25.047 35.5915C25.211 36.2064 25.498 36.7804 25.7029 36.8214C25.8669 36.9034 26.0309 37.2313 26.0309 37.5593C26.0309 38.4612 27.5067 38.8302 30.0484 38.5022C31.3193 38.3382 32.7131 38.1742 33.1231 38.1742ZM41.4042 36.2884C41.9781 35.7555 42.4291 35.0176 42.4291 34.6076C42.4291 33.4598 41.1582 31.205 40.3793 30.959C39.1904 30.5901 37.5506 31.164 36.7307 32.2709C36.0748 33.0908 35.9928 33.4597 36.3617 34.4846C36.7717 35.7145 38.7805 37.3133 39.8873 37.3133C40.1743 37.3133 40.8712 36.8624 41.4042 36.2884ZM8.73083 35.2226C9.34576 34.2387 9.0178 32.8038 8.1569 32.8038C7.82893 32.8038 7.58296 32.9678 7.58296 33.1728C7.58296 33.3778 7.45997 34.1157 7.33699 34.8126C7.00902 36.3294 7.86993 36.5754 8.73083 35.2226ZM44.8478 30.3851C45.3807 30.0571 45.3807 29.6882 44.8888 27.7204C44.3148 25.3017 43.9869 25.0147 42.757 26.1216C41.8141 26.9825 41.8141 27.7614 42.839 29.4422C43.6999 30.836 43.9459 30.959 44.8478 30.3851ZM39.8463 29.3192C40.2563 29.1962 40.2153 28.7863 39.8053 27.5974C39.5184 26.7365 39.1494 25.1787 38.9854 24.1128C38.6985 22.186 37.3456 20.5052 36.0748 20.5052C35.2958 20.5052 33.943 22.227 32.9591 24.3588C32.0982 26.3266 32.0982 26.3676 32.8771 27.4334C34.394 29.4832 36.9767 30.1801 39.8463 29.3192ZM27.0148 28.1713C27.3427 27.6384 27.2608 27.3104 26.7278 26.7775C26.0719 26.1216 25.9899 26.1216 25.375 26.7365C24.842 27.2694 24.801 27.5564 25.211 28.2533C25.7439 29.2372 26.3589 29.2372 27.0148 28.1713ZM31.2373 24.6457C31.4833 24.2768 31.8112 23.3339 31.9342 22.473C32.0982 21.5301 32.4262 20.9152 32.8771 20.8332C33.4921 20.7102 33.4921 20.6692 32.8361 19.9723C32.3852 19.5213 31.9752 18.2504 31.7702 16.6516C31.4013 13.7819 30.9093 12.5111 29.9255 12.1421C28.6956 11.6912 28.0807 12.2651 24.5551 17.1846C24.4731 17.2666 24.1451 17.0206 23.7761 16.6516C22.9152 15.7907 22.3413 15.8317 22.3413 16.7336C22.3413 17.2256 21.9723 17.0206 20.9065 15.9137C19.3486 14.1509 19.4716 14.2329 18.0778 14.7659C17.1349 15.0938 17.0119 15.0528 16.9709 14.2329L16.8889 13.331L16.7249 14.2739C16.52 15.2578 15.782 15.5448 15.782 14.6019C15.782 13.9869 14.6752 13.372 14.3882 13.8639C14.3062 14.0279 14.1012 14.8068 13.9782 15.5858C13.8143 16.3647 13.4863 17.5125 13.2403 18.1685C12.9124 18.9884 12.9534 19.4393 13.3223 19.8903C13.9782 20.6692 15.3721 20.6692 15.3721 19.8903C15.3721 19.5623 15.5771 19.2753 15.782 19.2753C16.028 19.2753 16.192 19.8903 16.192 20.6282C16.192 21.6121 16.315 21.7761 16.6019 21.3251C16.8069 20.9972 17.0119 20.9152 17.0119 21.2021C17.0119 21.4481 18.0778 22.35 19.3896 23.2109C20.6605 24.0718 21.8084 24.8917 21.8494 25.0967C22.0543 25.5476 23.6532 25.5066 24.3911 25.0147C24.924 24.6867 24.883 24.6047 24.3091 24.6047C23.7351 24.6047 23.5712 24.2768 23.5712 23.1699C23.5712 21.0381 24.678 21.2841 25.088 23.4979C25.375 24.9737 25.6209 25.3017 26.8508 25.6706C28.4496 26.2036 30.4174 25.7116 31.2373 24.6457ZM19.3896 25.0147C19.4306 24.6457 18.9387 24.0718 18.2418 23.6619C17.1349 23.0059 17.0119 22.9649 17.0119 23.5799C17.0119 25.4247 19.0617 26.6545 19.3896 25.0147ZM36.8127 18.6194C37.5916 17.8405 35.2139 15.7907 34.066 16.2417C33.4101 16.4876 33.1641 18.0865 33.697 18.5784C34.025 18.9474 36.4847 18.9474 36.8127 18.6194ZM25.9079 13.659C27.0968 12.4291 27.3018 11.9372 27.1378 10.8713C26.8508 9.10849 25.293 5.86984 24.5961 5.58287C23.2432 5.09093 20.2915 8.69854 20.2915 10.8303C20.2915 12.0192 22.9152 15.1758 23.8581 15.1758C24.2271 15.1758 25.129 14.4789 25.9079 13.659ZM37.0177 13.741C37.2636 13.167 37.6736 12.7161 37.9196 12.7161C38.4525 12.7161 38.4525 10.8303 37.8786 9.72342C37.6326 9.23148 36.7717 8.12459 35.9518 7.30468C34.025 5.29591 32.0572 5.17294 30.1714 6.93574C28.0807 8.90352 28.8596 10.7893 31.6473 10.5843C32.3032 10.5433 33.0411 10.6253 33.3281 10.8303C33.984 11.2403 33.943 12.7161 33.2461 12.7161C32.8771 12.7161 32.7541 13.044 32.9181 13.741C33.0821 14.6429 33.2871 14.7659 34.8449 14.7659C36.2797 14.7659 36.6487 14.6019 37.0177 13.741ZM15.782 11.9372C15.782 11.7322 15.4131 11.4862 14.9621 11.3632C14.4292 11.2403 14.1422 11.3632 14.1422 11.7322C14.1422 12.0601 14.5112 12.3061 14.9621 12.3061C15.4131 12.3061 15.782 12.1421 15.782 11.9372ZM19.5536 8.82152C20.3735 7.14071 20.8655 5.74686 20.6195 5.74686C20.0046 5.74686 16.8889 8.57555 16.274 9.72342C15.864 10.5023 15.823 10.8713 16.233 11.3222C17.2169 12.5111 18.0368 11.8962 19.5536 8.82152ZM29.3515 5.86984C29.8435 5.45989 30.7044 4.72197 31.3193 4.23003L32.3852 3.28714L31.3603 2.46723C30.4994 1.72931 29.9255 1.64732 27.7117 1.7703C26.1129 1.89329 24.883 2.22127 24.4731 2.63122C23.8991 3.20516 23.8991 3.32813 24.5961 4.10705C25.006 4.558 25.9489 5.13194 26.6868 5.4189C27.4657 5.70587 28.0807 6.07483 28.0807 6.23881C28.0807 6.73076 28.4086 6.64876 29.3515 5.86984Z" fill="#BA7E4B"/>
<path d="M23.4072 20.4232C22.9972 18.8244 23.1202 17.6355 23.7351 17.6355C24.3091 17.6355 24.801 18.8244 24.801 20.4232C24.801 20.9151 24.555 21.3251 24.2271 21.3251C23.9401 21.3251 23.5712 20.9151 23.4072 20.4232Z" fill="#BA7E4B"/>
<path d="M15.3721 18.1685C15.3721 16.8566 15.864 15.5858 16.356 15.5858C16.6429 15.5858 16.7659 16.1597 16.6839 17.2256C16.5609 18.2915 16.315 18.8654 15.946 18.8654C15.618 18.8654 15.3721 18.5374 15.3721 18.1685Z" fill="#BA7E4B"/>
<path d="M24.391 84.2531C24.391 83.4332 24.1451 83.2282 22.9562 82.9823C22.1773 82.8593 21.5214 82.5723 21.5214 82.3673C21.5214 82.1624 21.2344 81.9984 20.9064 81.9984C20.2505 81.9984 20.1685 81.5884 20.2505 79.1287C20.3325 77.2019 18.9796 75.0292 17.6678 75.0292C16.4789 75.0292 14.5521 76.505 14.5521 77.4479C14.5521 77.8168 14.7981 78.4728 15.0851 78.8827C15.413 79.2927 15.577 80.1126 15.454 80.6455C15.2901 81.5884 15.1261 81.6704 13.4043 81.4654C12.4204 81.3425 11.4365 81.0555 11.2725 80.7685C11.0265 80.3996 10.4116 80.3176 9.22274 80.5225C7.86989 80.7275 7.17297 80.6045 5.9431 79.9076C4.30329 78.9647 3.48338 77.8168 4.26229 77.5709C4.50826 77.4889 4.71324 77.1609 4.71324 76.833C4.71324 76.0131 5.1232 76.136 5.9841 77.2429C7.13197 78.6778 10.9036 79.4566 12.3384 78.5547C12.8713 78.1858 13.3223 77.6529 13.3223 77.3659C13.3223 76.505 10.0426 70.3557 9.22274 69.6178C8.77179 69.2488 8.40283 68.7569 8.40283 68.5109C8.40283 68.2649 8.19785 68.0599 7.95188 68.0599C7.62391 68.0599 7.54192 67.404 7.7469 65.9282C7.91088 64.7393 8.03387 63.2635 8.03387 62.6485C7.99288 61.7466 8.15686 61.5007 8.81278 61.5007C9.38672 61.5007 9.63269 61.7876 9.63269 62.4436C9.63269 63.3455 9.71468 63.3455 12.0104 63.0995C15.0031 62.7715 15.372 62.6076 16.5199 60.9677C17.5858 59.3689 17.6678 58.221 16.7659 56.4582C15.618 54.2445 14.5521 53.3016 13.0353 53.3016C11.8874 53.3016 11.6825 53.1786 11.6825 52.3177C11.6825 51.5798 11.4365 51.2518 10.7806 51.1698C10.1246 51.0878 9.75568 50.6369 9.42771 49.571C9.22274 48.7511 8.48482 47.3163 7.86989 46.3734C6.80401 44.7745 6.55803 44.6106 5.32817 44.7746C4.26229 44.8975 3.89334 44.7746 3.77035 44.2416C3.64737 43.8317 3.15541 43.4627 2.62247 43.3807C1.72058 43.2577 1.72058 43.2577 2.95044 42.0279C4.01633 40.962 4.42627 40.798 5.86111 40.921C7.25495 41.044 7.54192 41.2489 7.7879 42.1508C7.91088 42.7248 8.40283 43.6677 8.77178 44.2416C9.18174 44.8156 10.0836 46.5373 10.7806 48.0952C11.9284 50.5959 12.1744 50.8419 13.2403 50.8419C14.5931 50.8419 15.0441 50.3909 15.7 48.4641C15.946 47.7262 16.5199 46.6193 17.0119 46.0454C18.6927 43.9136 17.9138 40.839 15.0441 38.2563L13.1173 36.4935L14.4701 36.7394C15.741 36.9854 15.782 36.9444 15.782 35.7146C15.782 34.3207 15.0031 34.0338 14.1422 35.0586C13.8552 35.3866 13.3633 35.6736 13.0763 35.6736C12.7483 35.6736 12.5024 35.8786 12.5024 36.0835C12.5024 36.3295 12.2564 36.4935 11.9694 36.4935C11.6825 36.4935 10.7806 36.9444 9.91966 37.5184C9.09975 38.0923 8.40283 38.3793 8.40283 38.1333C8.40283 37.9283 7.86989 37.7233 7.17297 37.7233H5.9431V34.8537C5.9431 31.984 5.9431 31.984 7.09097 31.943C7.7059 31.943 7.95187 31.82 7.7059 31.697C7.41893 31.615 7.17297 30.8771 7.17297 30.0982C7.17297 28.2534 7.99288 28.2944 8.89478 30.2622C10.3706 33.3368 11.2315 34.4437 12.2564 34.4437C13.7732 34.4437 15.7 32.5989 16.233 30.6311C16.4789 29.6883 16.8889 28.7863 17.1758 28.6224C17.5038 28.3764 17.5038 28.2124 17.1348 27.9664C16.8479 27.8025 16.4379 26.7776 16.233 25.7117C15.946 24.1949 15.987 23.7849 16.4379 23.7849C16.7659 23.7849 17.0119 24.0309 17.0119 24.3178C17.0119 24.6048 17.2578 25.1788 17.5448 25.5887C18.0367 26.2856 18.2007 26.2856 19.2256 25.7527L20.3735 25.1378L19.2666 24.2358C17.5448 22.924 18.2417 22.801 20.6195 24.0309C21.7673 24.6048 22.8742 24.9738 23.1202 24.8098C23.7761 24.4408 23.6531 20.3003 22.9562 18.7425C22.6282 18.0046 21.8903 16.8157 21.2754 16.1188C20.4145 15.0529 20.3325 14.7659 20.8654 14.7659C21.2344 14.7659 21.5214 14.5609 21.5214 14.356C21.5214 14.11 21.9723 14.233 22.5462 14.6019C23.2022 15.0529 23.9401 15.1759 24.801 14.9709L26.0308 14.6839L25.1699 16.2008C24.35 17.5946 24.309 17.8816 24.76 21.2022C25.006 23.129 25.088 24.8918 24.965 25.0968C24.842 25.2607 24.883 25.4247 25.088 25.3837C25.2519 25.3427 25.9899 25.5067 26.6458 25.7937C27.6297 26.2446 28.1626 26.2446 29.5155 25.7937C30.9093 25.3017 31.2373 24.9738 31.7702 23.375C32.0982 22.3501 32.5081 21.4892 32.7131 21.4072C33.123 21.2022 33.0821 20.1773 32.6721 20.0133C32.4671 19.9723 32.1802 18.8245 32.0162 17.5536C31.8112 15.5858 31.8522 15.1759 32.3851 15.1759C33.164 15.1759 33.205 13.6591 32.3851 12.8801C31.4832 11.9782 31.6062 10.6664 32.5491 10.6664C33.328 10.6664 33.82 11.4043 33.82 12.6752C33.82 13.6591 35.2958 14.9299 36.0747 14.6019C36.4437 14.4789 37.1406 13.4541 37.6325 12.3062C38.1245 11.1993 38.7804 10.2564 39.0674 10.2564C39.3134 10.2564 39.5593 9.80548 39.5593 9.23154C39.5593 8.28865 38.9854 8.00168 37.4686 8.12466C37.3456 8.12466 36.4437 7.50975 35.5008 6.73083C33.492 5.17301 33.492 5.173 31.9752 5.74693C30.9913 6.11589 30.9093 6.07489 31.0323 5.25498C31.1143 4.55806 31.4832 4.27111 32.3031 4.18911C33.656 4.02513 33.943 2.4673 32.5901 2.4673C31.9752 2.4673 31.7702 2.18033 31.7702 1.44242C31.7702 0.00757894 32.4671 0.171571 34.2299 2.01636C35.2548 3.08224 35.7468 3.94314 35.6648 4.59907C35.6238 5.09101 35.6648 5.214 35.7468 4.80405C35.9107 4.18911 36.1567 4.2711 37.7555 5.33698C38.7394 6.0339 39.5593 6.77183 39.5593 6.93581C39.5593 7.14079 40.4612 8.6576 41.5271 10.2974C44.1508 14.356 44.3148 14.7659 43.0439 14.7659C42.388 14.7659 42.0191 14.5199 42.0191 14.151C42.0191 13.823 41.8551 13.5361 41.6091 13.5361C41.4041 13.5361 41.1991 13.2081 41.1991 12.8391C41.1991 12.2242 41.1172 12.1832 40.7892 12.7162C40.5842 13.0441 40.2972 13.1671 40.1333 13.0031C39.6413 12.5112 38.3295 13.987 37.9195 15.6268C37.6325 16.6107 37.6325 17.5126 37.9195 18.2095C38.2885 19.1934 38.2475 19.2754 37.1816 19.2344C36.5667 19.2344 36.3207 19.1114 36.6077 18.9884C37.8785 18.4965 36.1157 15.9958 34.4349 15.9958C32.9181 15.9958 33.0001 18.0456 34.5579 19.2754L35.7468 20.2183L34.8449 21.1612C34.3529 21.6941 33.492 22.965 32.9591 23.9899C32.3031 25.1788 31.6882 25.8347 31.1553 25.8757C30.7043 25.8757 30.5813 25.9987 30.8683 26.1217C31.1143 26.2036 31.3603 26.6546 31.3603 27.1055C31.3603 27.7205 31.0733 27.8844 29.9664 27.8844C28.5726 27.8844 27.8756 28.4584 26.6458 30.5492C26.0308 31.574 24.801 30.9181 24.801 29.5243C24.801 28.8683 24.514 28.2944 24.1861 28.1304C23.8581 28.0074 23.5711 27.4745 23.5301 26.9825C23.5301 26.4496 23.4071 26.2446 23.3252 26.4906C23.2022 26.8186 22.6692 26.8186 21.5214 26.5316C19.2256 25.9167 18.5287 26.6136 18.8567 29.1553C19.1436 31.0411 19.1026 31.0821 17.8728 31.3691C16.4379 31.656 16.151 32.3939 17.4628 32.3939H18.2827L17.4628 33.5828C16.2739 35.2226 16.3969 36.3295 17.8318 37.8053C18.5287 38.4613 18.9796 39.1992 18.8157 39.4041C18.6927 39.6091 19.4306 39.7731 20.4555 39.7731C22.0953 39.7731 22.3413 39.8961 22.3413 40.634C22.3413 41.3309 22.1363 41.4539 21.0294 41.3309L19.7176 41.208L19.2666 44.0776L18.8567 46.9473L20.3735 46.7833C22.2593 46.6193 22.3003 46.9063 20.7014 48.2182C19.8815 48.9151 19.2666 50.063 18.7337 51.7848C17.9548 54.4495 17.9957 57.8111 18.8157 57.8111C19.0616 57.8111 19.7995 58.467 20.4145 59.2459C21.0704 60.0658 22.3003 61.1727 23.2022 61.7876C25.088 63.0585 25.5799 62.8125 27.0967 59.7789C27.7937 58.385 28.3266 57.8111 28.9415 57.8111C29.6794 57.8111 29.7614 57.9751 29.5975 58.959C29.4745 59.5739 29.1055 61.7876 28.8185 63.8784C28.5316 65.9282 28.1626 67.65 27.9986 67.65C27.8346 67.65 27.6707 67.937 27.6707 68.2649C27.6707 68.5929 27.9576 68.8798 28.2856 68.8798C28.7365 68.8798 28.9005 69.3308 28.9005 70.3967V71.8725L27.9166 70.9706C26.7278 69.8637 26.0309 70.1097 23.8581 72.5284C22.3003 74.2912 21.6853 75.8081 22.0953 76.9149C22.3003 77.4889 22.7512 77.5299 24.637 77.2839C27.2607 76.9559 30.5403 75.6851 30.5403 74.9882C30.5403 74.7422 30.1714 74.0043 29.6794 73.3484C28.8595 72.1595 28.8595 72.1595 29.6794 72.1595C30.1304 72.1595 31.1553 72.5284 31.9752 73.0204C32.8361 73.5533 33.779 73.7993 34.3529 73.6353C35.8697 73.2663 37.9195 70.9296 38.4524 69.0028C38.6984 68.0599 39.0674 67.24 39.2314 67.24C39.7643 67.24 39.6003 68.3059 38.7394 70.3147C37.3866 73.5123 37.7965 74.8242 40.1743 74.7422C43.2079 74.6602 45.0527 72.0775 45.5446 67.281L45.8316 64.7803H43.3309C41.2401 64.7803 40.7072 64.9443 40.2972 65.6002C40.0103 66.0512 39.6413 66.4201 39.4773 66.4201C39.3543 66.4201 38.7394 65.3952 38.1655 64.1654C36.8946 61.3367 32.7951 56.1713 31.8522 56.1713C31.4422 56.1713 30.9093 56.3763 30.6223 56.6632C30.2534 57.0322 30.1304 56.8682 30.1304 55.9253C30.1304 54.9824 29.8844 54.6135 28.9415 54.2855C27.8347 53.8345 26.3998 51.2518 27.3017 51.2518C27.5067 51.2518 27.6707 50.8009 27.6707 50.2269C27.6707 48.5871 28.2856 49.0381 29.6794 51.6618C30.7043 53.5476 31.2783 54.2035 32.1392 54.3675C32.7951 54.4905 33.533 55.1054 33.943 55.8433L34.6809 57.1142L35.7058 56.1303C36.2797 55.5973 37.0586 54.6544 37.4276 54.0395C38.1245 52.8506 38.7394 52.5227 38.7394 53.3426C38.7394 53.5886 38.2885 54.3675 37.7555 55.0644C35.8288 57.6061 36.0337 59.1639 38.6574 62.6485C40.1333 64.5753 41.7321 64.3703 43.4539 62.0336C44.7657 60.2298 45.2987 59.9019 45.2987 60.8857C45.2987 61.2137 45.5037 61.5007 45.7086 61.5007C45.9546 61.5007 46.1186 61.1317 46.1186 60.6808C46.1186 60.2298 45.9546 59.8609 45.7086 59.8609C45.5037 59.8609 45.1757 59.3689 45.0527 58.754C44.5608 56.7452 42.511 54.2035 40.9942 53.6706C39.6413 53.1786 38.9854 52.0717 40.0513 52.0717C41.1172 52.0717 43.2489 53.0966 43.2489 53.5886C43.2489 53.8755 43.5769 54.1215 43.9868 54.1625C44.4378 54.1625 45.2167 55.2284 46.2416 57.3601C48.1274 61.1727 49.1523 61.9106 50.8331 60.5988C51.8579 59.8199 51.9399 59.5329 51.735 57.4421C51.653 56.1713 51.407 54.8184 51.243 54.4495C51.038 53.9165 51.12 53.7115 51.612 53.7115C51.9809 53.7115 52.2679 53.7525 52.2679 53.8345C52.2679 53.8755 52.5549 55.4743 52.8828 57.4011C53.2108 59.3279 53.4978 61.0907 53.4978 61.3367C53.4978 61.5827 52.7599 62.0336 51.817 62.3206C50.4641 62.7715 49.9312 62.7715 48.8653 62.3616C46.9385 61.5827 45.9546 61.5827 45.7906 62.4436C45.5037 63.8374 46.1186 65.1903 47.3485 65.8052C48.7013 66.5021 48.9473 67.24 47.8814 67.24C47.0205 67.24 45.2987 71.9545 45.2987 74.1683C45.2987 75.8491 46.2826 75.8491 47.1435 74.2092C47.6764 73.2254 48.0454 72.9794 49.1523 72.9794C50.7511 72.9794 51.038 73.4713 51.038 76.0131C51.038 77.4479 50.7921 77.9808 49.5212 79.2107C47.6354 81.0145 45.4217 81.9984 40.4612 83.2282C37.7555 83.9252 36.7306 84.3761 36.8536 84.7451C37.0176 85.155 36.5257 85.278 34.8449 85.278C33.1231 85.278 32.5901 85.155 32.5901 84.6631C32.5901 84.3351 32.2212 84.0481 31.8112 84.0481C31.3603 84.0481 30.9093 83.7202 30.8273 83.3512C30.7043 82.9413 30.6223 83.2282 30.5813 83.9661L30.5403 85.278H27.4657C24.473 85.278 24.391 85.237 24.391 84.2531ZM33.82 81.3834C33.451 80.9325 33.1231 80.8915 32.5491 81.2194C32.1392 81.4244 31.7702 81.7934 31.7702 81.9984C31.7702 82.5723 32.7131 82.7363 33.533 82.3263C34.1069 82.0394 34.1889 81.8344 33.82 81.3834ZM30.5403 81.3834C32.3441 80.2356 32.3851 80.1946 31.7292 78.3498C31.2373 76.9149 30.9093 76.833 28.5726 77.6529C27.6707 77.9808 26.0718 78.3908 25.006 78.5138C22.9562 78.8417 21.3574 79.8666 21.8493 80.6045C22.2183 81.2194 25.8259 82.3263 27.5887 82.3673C28.3676 82.4083 29.5974 81.9984 30.5403 81.3834ZM40.2563 81.7524C41.5271 81.3835 43.4949 80.6455 44.6428 80.1126C45.7906 79.5797 47.3484 79.1287 48.0864 79.1287H49.3982V76.464C49.3982 74.9882 49.2342 73.7993 48.9883 73.7993C48.2504 73.7993 47.7584 75.4391 48.0044 77.0789C48.1684 78.1858 48.1274 78.7187 47.7994 78.7187C47.5534 78.7187 47.3485 78.4728 47.3485 78.1448C47.3485 77.8578 46.3646 77.2019 45.1757 76.71C43.3719 75.972 42.757 75.8901 41.8141 76.259C40.9532 76.587 39.9283 76.546 37.6325 76.0131C32.7951 74.9472 31.4832 75.7671 33.0001 78.9647C33.902 80.7685 35.8697 82.4083 37.2226 82.4083C37.6735 82.4083 39.0264 82.1214 40.2563 81.7524ZM15.2081 74.8652C15.454 74.2092 13.1173 70.5197 12.4614 70.5197C11.3545 70.5197 11.8874 73.0204 13.4043 74.9472C13.9782 75.6031 14.9211 75.5621 15.2081 74.8652ZM37.4686 74.4962C38.0015 73.8403 37.6735 73.3893 36.6897 73.3893C35.8697 73.3893 34.9269 74.3732 35.3368 74.7422C35.7878 75.2341 36.9766 75.0702 37.4686 74.4962ZM22.2183 72.8154C26.0309 69.9457 26.8508 67.814 25.2519 64.8623C24.1451 62.7715 20.0865 62.1156 16.6839 63.4684C13.7732 64.6983 13.3223 65.2722 13.3223 67.9779C13.3223 70.2327 13.4453 70.5607 14.9621 72.2825C16.4789 74.0043 17.2168 74.4142 19.1436 74.5782C19.5126 74.5782 20.8654 73.7993 22.2183 72.8154ZM11.8464 67.9779C12.2974 66.2971 12.0924 64.8623 11.4365 64.6163C8.77178 63.5914 7.99288 65.9692 10.2886 68.2239C11.1495 69.1258 11.5595 69.0438 11.8464 67.9779ZM27.8346 65.3542C28.3266 64.1244 28.1216 61.9106 27.5067 61.9106C26.8098 61.9106 26.4408 62.8125 26.4408 64.6163C26.4408 66.0921 27.3427 66.5841 27.8346 65.3542ZM20.7014 61.5417C20.7014 61.2957 20.2505 60.6398 19.7176 60.0248L18.7747 58.877L18.2417 59.8609C17.7908 60.6808 17.8318 60.8857 18.4877 61.3777C19.3486 61.9926 20.7014 62.0746 20.7014 61.5417ZM17.6678 52.3177C17.9958 50.9239 17.7088 49.858 16.9709 49.694C16.069 49.53 15.2491 51.4568 15.782 52.5227C16.3969 53.5886 17.3398 53.5066 17.6678 52.3177ZM6.76301 42.6428C6.76301 41.2899 6.31206 41.085 5.36917 42.0688C4.34429 43.0937 4.63126 43.8727 6.0251 43.8727C6.55804 43.8727 6.76301 43.5447 6.76301 42.6428ZM9.05876 35.9605C9.50971 36.1245 9.63269 35.7556 9.63269 34.4847C9.63269 33.5418 9.46871 32.8039 9.26373 32.8039C9.05876 32.8039 8.60781 32.6809 8.23885 32.5579C7.7879 32.394 7.54192 32.7219 7.37794 33.7878C7.00898 35.5506 7.37795 36.8624 8.07487 36.1655C8.32084 35.9196 8.77179 35.8376 9.05876 35.9605ZM27.2607 28.3354C27.5477 27.7205 27.5067 27.3925 27.0147 26.9005C26.1948 26.0396 25.3749 26.0806 25.047 26.9005C24.35 28.7043 26.3588 30.0162 27.2607 28.3354Z" fill="#C38B48"/>
<path d="M3.52439 73.3893C3.27842 72.5284 2.58149 71.2575 2.04855 70.6016C0.941677 69.2487 0.695702 67.6499 1.5976 67.6499C1.92556 67.6499 2.33552 67.281 2.45851 66.789L2.74548 65.9281L3.52439 66.789C4.05733 67.363 4.83624 67.6499 5.73814 67.6499C6.968 67.6499 7.17298 67.7729 7.17298 68.5928C7.17298 69.6587 6.47606 70.5196 5.61516 70.5196C5.16421 70.5196 5.1232 70.3966 5.49216 69.9867C5.82013 69.5357 5.61515 69.2897 4.46728 68.7568C1.96656 67.5269 1.43362 68.1829 3.44239 70.0687C4.79524 71.2985 5.65615 75.0291 4.59027 75.0291C4.26231 75.0291 3.81136 74.2912 3.52439 73.3893Z" fill="#C38B48"/>
<path d="M1.43365 63.1404C1.43365 61.7876 1.55664 61.5006 2.25356 61.5006C3.11447 61.5006 3.27845 62.1565 2.8275 63.8783C2.37655 65.4772 1.43365 64.9852 1.43365 63.1404Z" fill="#C38B48"/>
<path d="M1.10565 59.2459C0.449722 56.7862 0.490713 56.5812 1.43361 56.5812C2.08953 56.5812 2.25351 56.2942 2.25351 55.3514C2.25351 53.9165 2.66346 53.7935 3.40138 54.9414C3.68835 55.3923 4.63125 56.0483 5.53315 56.4172C7.00898 56.9912 7.17296 57.2371 7.17296 58.467C7.17296 59.8608 7.17296 59.8608 6.35305 59.0409C5.49215 58.18 3.60636 57.5241 3.1964 57.9751C3.07342 58.0981 2.95043 58.877 2.99143 59.6559C3.03242 60.7627 2.86845 61.0907 2.33551 61.0907C1.80257 61.0907 1.47461 60.5578 1.10565 59.2459Z" fill="#C38B48"/>
<path d="M8.85383 53.5475C9.91971 51.7027 10.5346 51.6617 10.3706 53.4245C10.2887 54.5314 10.0427 54.7774 9.0998 54.8593L7.99292 54.9823L8.85383 53.5475Z" fill="#C38B48"/>
<path d="M32.9181 51.9897C33.4921 50.8008 34.025 49.4889 34.107 49.079C34.353 47.7261 35.4189 45.5124 35.8288 45.5124C36.0748 45.5124 36.2798 45.7174 36.2798 45.9223C36.2798 46.1683 36.5257 46.3323 36.8127 46.3323C37.3046 46.3323 38.9035 49.6119 38.5345 49.9399C38.4115 50.0629 38.0016 49.8579 37.5916 49.4889C37.1817 49.079 36.6487 48.792 36.4437 48.792C35.9518 48.792 33.861 51.9897 33.5741 53.2195C33.4101 53.7115 33.0001 54.1214 32.5902 54.1214C31.9752 54.1214 32.0162 53.8754 32.9181 51.9897Z" fill="#C38B48"/>
<path d="M1.31067 51.9897C0.982705 49.6119 1.72061 47.1522 2.78649 47.1522C3.48341 47.1522 3.56541 47.3162 3.27844 48.5051C3.11446 49.202 2.99147 50.6778 3.03247 51.7847C3.11446 53.4245 2.99148 53.7115 2.33555 53.7115C1.72062 53.7115 1.47465 53.3425 1.31067 51.9897Z" fill="#C38B48"/>
<path d="M23.6942 47.8491C22.0133 47.3572 21.9724 46.6603 23.5712 46.0453C24.719 45.5944 24.76 45.5124 24.6781 43.0937C24.5961 40.7979 24.5141 40.5929 23.6942 40.5929C23.1202 40.5929 22.7513 40.347 22.7513 39.978C22.7513 39.65 22.9972 39.3631 23.3252 39.3631C23.9811 39.3631 24.6371 36.0834 24.0631 35.7145C23.4072 35.3045 23.0792 33.6647 23.3662 32.3939C23.7352 30.754 24.801 30.754 24.801 32.3939C24.801 33.2138 25.006 33.6237 25.416 33.6237C25.9079 33.6237 26.0309 34.1567 26.0309 36.0834V38.5432H28.2856C30.0075 38.5432 30.5404 38.7072 30.5404 39.1581C30.5404 39.5681 29.9665 39.855 28.8596 40.019C27.9577 40.183 26.9328 40.552 26.6048 40.8799C25.8669 41.6588 25.8669 43.7906 26.6458 45.6764C27.2608 47.1522 27.2608 47.1522 26.2769 47.1522C25.7029 47.1522 25.211 47.3982 25.129 47.6851C25.047 48.0951 24.678 48.1361 23.6942 47.8491Z" fill="#C38B48"/>
<path d="M30.9503 39.1991C30.9503 38.6662 32.0982 38.1332 33.328 38.1332C33.574 38.1332 33.82 38.5022 33.82 38.9531C33.82 39.6091 33.533 39.7731 32.3852 39.7731C31.4423 39.7731 30.9503 39.5681 30.9503 39.1991Z" fill="#C38B48"/>
<path d="M35.0499 33.0088C35.0499 32.6808 34.8859 32.3939 34.681 32.3939C34.148 32.3939 32.3032 28.9913 32.5082 28.3763C32.5902 28.0894 33.1231 28.2123 34.066 28.8273C34.8039 29.3192 35.3779 29.9751 35.2549 30.2621C35.1319 30.5901 35.5419 30.754 36.4848 30.754H37.9196L37.0997 31.574C36.6487 32.0249 36.2798 32.6808 36.2798 33.0088C36.2798 33.3368 35.9928 33.6237 35.6648 33.6237C35.3369 33.6237 35.0499 33.3368 35.0499 33.0088Z" fill="#C38B48"/>
<path d="M7.501 26.2446C7.25502 24.7278 7.99294 23.006 9.75574 20.7922C11.8465 18.2505 12.5024 16.6927 12.5024 14.3559C12.5024 13.2081 12.7074 11.4043 12.9534 10.3794C13.4043 8.69856 13.6503 8.4116 15.5361 7.59169C16.684 7.05875 18.3238 5.86988 19.2257 4.92699C20.2506 3.77912 20.9065 3.36917 21.0705 3.65614C21.2345 3.94311 22.3003 4.27107 23.4072 4.47605C25.375 4.76302 27.2608 5.66491 27.2608 6.23884C27.2608 6.81278 25.744 6.5668 25.211 5.95187C24.924 5.62391 24.4731 5.33694 24.1451 5.33694C23.2432 5.33694 20.7835 8.08364 20.4965 9.3955C20.3326 10.2564 19.9636 10.6663 19.4717 10.6663C18.5288 10.6663 18.6927 9.96942 20.1686 7.79666C21.8904 5.17296 21.1115 5.00898 18.2828 7.38671C17.2169 8.28861 16.11 9.02653 15.8231 9.02653C15.0032 9.02653 15.7001 10.7073 17.0119 12.0192C17.6679 12.6341 18.4878 13.1261 18.8157 13.1261C19.1847 13.1261 19.4717 13.413 19.4717 13.741C19.4717 14.069 19.1847 14.3559 18.8567 14.3559C18.5288 14.3559 17.8728 14.7249 17.4219 15.1758C16.397 16.2007 16.274 20.2593 17.2169 21.6121C17.8318 22.473 17.7908 22.514 16.52 22.637C15.1261 22.76 12.8714 22.268 12.5024 21.6941C12.0925 21.1202 10.0837 21.8171 10.1657 22.514C10.2887 23.5389 8.68987 27.4745 8.15692 27.4745C7.86996 27.4745 7.58299 26.9415 7.501 26.2446ZM15.5771 17.3486C15.8641 14.5609 15.8231 14.1509 15.1261 13.659C14.6752 13.331 14.3882 13.0031 14.4702 12.9211C14.5112 12.7981 14.5112 12.1012 14.5112 11.4043C14.4702 10.6663 14.2652 11.6912 14.1013 13.7C13.8963 15.7088 13.4453 17.7995 13.1174 18.2915C12.5434 19.1524 12.5844 19.2754 13.5683 20.0543C14.1833 20.5462 14.7982 20.8332 14.9622 20.7102C15.1671 20.5872 15.4541 19.0704 15.5771 17.3486Z" fill="#C38B48"/>
<path d="M26.4408 13.8229C26.4408 13.7409 26.7278 13.003 27.0558 12.1831C27.3837 11.4042 27.5477 10.7073 27.4657 10.5843C27.3837 10.5023 27.0148 9.7234 26.6458 8.90349L26.0309 7.38666H27.5887C29.1055 7.38666 29.1465 7.42766 28.9826 8.57553C28.8596 9.47743 29.0235 9.92838 29.6795 10.3383C30.6634 10.9533 30.7863 11.4862 29.9254 11.4862C29.5975 11.4862 28.6956 12.0601 27.8757 12.757C27.0968 13.454 26.4408 13.9459 26.4408 13.8229Z" fill="#C38B48"/>
<path d="M21.9313 2.91817C21.9313 2.09826 26.9738 0.00750732 28.9825 0.00750732C30.7863 0.00750732 30.9503 0.0894981 30.9503 1.03239C30.9503 1.93429 30.8683 2.01628 29.9254 1.64732C28.6546 1.15538 25.088 1.85229 24.2271 2.71319C23.5712 3.36912 21.9313 3.49211 21.9313 2.91817Z" fill="#C38B48"/>
<path d="M50.2182 69.8637C50.2182 68.9618 50.4642 68.3469 50.8332 68.2239C51.7761 67.855 51.5711 66.8301 50.5462 66.8301H49.6443L50.5462 66.0102C51.2431 65.3542 51.3661 64.9853 51.0381 64.2064C50.7512 63.3864 50.8332 63.1815 51.5711 62.9765C53.4159 62.4846 53.6209 62.6485 53.2929 64.2884C53.1289 65.1083 53.0469 66.2151 53.0469 66.7481C53.0879 67.9369 52.432 69.2078 51.1611 70.3967L50.2182 71.2986V69.8637Z" fill="#C38B48"/>
<path d="M44.0689 52.6456C44.0689 52.5226 44.6019 51.9897 45.2578 51.4158C46.0367 50.7598 46.4877 49.9399 46.6107 48.997C46.6926 48.2181 46.6516 47.5622 46.5287 47.5622C45.9547 47.5622 44.4789 44.2825 44.4789 43.0937C44.4789 41.4948 42.6751 39.3631 41.3222 39.3631C40.3384 39.3631 38.9445 40.511 37.9606 42.0278C37.6327 42.6017 37.3867 42.6837 37.2637 42.3558C37.1407 42.0688 36.8128 41.8228 36.5668 41.8228C36.2798 41.8228 35.7469 41.2489 35.3779 40.552C34.599 39.1991 34.394 36.9034 35.05 36.9034C35.2959 36.9034 35.4599 36.3704 35.4599 35.6735C35.4599 35.0176 35.5419 34.4436 35.6239 34.4436C35.8289 34.4436 38.7395 37.3543 38.7395 37.5593C38.7395 37.6413 38.2066 37.7233 37.5507 37.7233C36.1158 37.7233 35.7059 38.5432 36.5668 39.7321C37.1407 40.593 37.2227 40.593 37.9196 39.978C38.3296 39.6091 38.7805 38.9121 38.9035 38.3792C39.0265 37.8463 39.6824 37.2723 40.5433 36.9854C42.0602 36.4114 42.6341 35.1816 42.1832 33.3778C42.0192 32.6809 42.1011 32.1889 42.4701 31.9429C42.9211 31.656 42.8801 31.574 42.3471 31.574C41.7732 31.574 41.6092 31.246 41.6092 30.1391C41.6092 28.3763 42.0192 28.3353 42.9621 29.9342C43.659 31.082 43.741 31.123 44.6429 30.5491C45.5448 29.9342 45.5448 29.9341 44.9298 27.3104C44.3149 24.8507 44.2329 24.7277 43.454 25.2607C42.2651 26.0806 41.1993 25.9986 41.1993 25.0147C41.1993 24.4818 41.4042 24.3178 41.7732 24.4408C42.1012 24.5637 42.7571 24.2768 43.208 23.8258C44.4379 22.596 44.3559 20.0133 43.0031 17.4306C41.9782 15.4218 41.9782 15.3808 42.8391 15.2578C44.6019 14.9708 45.2988 16.5697 45.5038 21.4481C45.7088 26.9005 46.4877 29.4012 48.9064 32.6809C50.0543 34.2387 51.2021 36.0425 51.4481 36.6984C51.9401 38.0102 51.6531 40.593 51.0382 40.593C50.7922 40.593 50.6282 40.9619 50.6282 41.4129C50.6282 42.6837 49.6853 42.3558 48.9884 40.8799C48.3735 39.6091 47.3076 39.2811 46.4057 40.183C45.8727 40.6749 45.9547 43.2576 46.5696 44.3235C46.8566 44.8565 47.0616 45.4304 47.0206 45.6354C46.9796 45.7994 47.4306 45.9224 48.0045 45.9224C48.7014 45.9224 49.1524 45.6764 49.2754 45.1025C49.7263 43.4216 50.5052 44.2825 50.7512 46.6603C50.9152 47.9311 51.1201 49.6119 51.2841 50.3499C51.5301 51.4977 51.4481 51.6617 50.6282 51.6617C49.7673 51.6617 49.7263 51.5387 49.9723 50.0629C50.2593 48.3001 49.4803 46.9882 48.3735 47.3982C47.4716 47.7671 47.6355 49.079 48.6194 49.7349C49.7263 50.5548 49.1114 51.7847 47.3076 52.4406C45.9137 52.9326 44.0689 53.0556 44.0689 52.6456ZM46.1187 39.4861C46.1187 39.1171 46.4877 38.4202 46.8976 37.9692C48.2505 36.4934 48.5374 34.4436 47.6355 32.9268C47.2256 32.1889 46.6107 31.574 46.3237 31.574C45.4218 31.574 43.659 33.5417 43.659 34.5666C43.659 35.1406 43.536 36.1245 43.413 36.8214C43.167 37.9283 43.29 38.1332 44.2329 38.3792C45.3398 38.6252 45.6678 39.5681 44.8069 39.896C44.5199 40.019 44.6839 40.142 45.2168 40.142C45.7907 40.183 46.1187 39.937 46.1187 39.4861ZM50.5462 38.5022C50.6282 37.9283 50.3002 37.0264 49.8493 36.4524L49.0704 35.4685L48.6194 36.6164C48.0455 38.0512 48.7014 39.896 49.7263 39.6911C50.1363 39.6091 50.4642 39.1171 50.5462 38.5022Z" fill="#C38B48"/>
<path d="M40.0103 27.9664C39.8053 27.5974 39.4364 26.1626 39.1904 24.8097C38.8624 22.9239 38.4525 22.104 37.5096 21.2431C36.8537 20.6282 36.2797 20.0133 36.2797 19.8903C36.2797 19.7673 36.8537 19.6853 37.5506 19.6853C38.6575 19.6853 38.9034 19.9313 39.7643 21.8581C40.8712 24.2768 41.6091 28.7043 40.8712 28.7043C40.6252 28.7043 40.2153 28.3763 40.0103 27.9664Z" fill="#C38B48"/>
<path d="M22.1363 85.278C19.4306 84.868 15.782 83.2282 15.782 82.4083C15.782 81.5884 14.3062 81.1784 11.2725 81.1784C8.93578 81.1784 6.10709 80.2355 4.83623 79.0467C4.09831 78.3497 3.89334 77.7348 3.89334 76.013C3.89334 73.3893 3.4014 72.0364 1.84357 70.2327C0.121767 68.3059 -0.0832153 67.117 0.94167 65.0672C1.72058 63.4274 1.72058 63.1814 1.14665 60.0658C0.777688 57.893 0.654707 55.7613 0.818688 53.7115C0.98267 52.0307 1.22864 49.038 1.35162 47.1113L1.6386 43.5447L3.81135 41.2899L5.94311 38.9942V33.8287C5.94311 29.1963 6.0661 28.3354 7.009 25.9166C7.62393 24.3998 8.89479 22.1041 9.91967 20.8332C12.0514 18.0455 12.3794 17.1846 12.7074 13.0441C12.9943 9.51847 13.7732 8.08364 15.659 7.59169C16.274 7.46871 17.8728 6.27984 19.2666 5.00899C23.5301 0.991438 28.6136 -0.85335 31.8522 0.376512C33.1231 0.868457 39.6003 7.22273 40.6662 9.02653C41.1172 9.80544 42.1831 11.5682 43.003 12.9211C44.8887 15.9957 45.1757 17.1026 45.7086 23.0879C46.2006 28.6223 46.6105 29.8522 49.1113 33.1318C51.694 36.4934 52.0219 37.6823 51.202 40.757C50.3821 43.7906 50.6281 48.3411 51.858 52.8916C53.1698 57.852 53.5798 61.8696 53.1288 65.3542C52.8008 67.9779 52.5549 68.7158 51.448 69.9457C50.4231 71.1345 50.2181 71.6675 50.4231 72.5284C50.5871 73.1023 50.7921 74.4552 50.9151 75.4801C51.079 77.0789 50.9561 77.5298 50.0132 78.6367C48.3733 80.6045 46.0366 81.7524 41.1172 83.0232C37.7965 83.8841 36.6897 84.3351 36.6897 84.827C36.6897 85.401 35.9108 85.4829 30.2124 85.5239C26.6868 85.5239 23.0382 85.4419 22.1363 85.278ZM28.6136 83.7611C28.0806 83.6791 27.1787 83.6791 26.5638 83.7611C25.9079 83.8431 26.3588 83.9251 27.4657 83.9251C28.6136 83.9251 29.1055 83.8431 28.6136 83.7611ZM35.7878 83.7611C35.3778 83.6791 34.7219 83.6791 34.3529 83.7611C33.943 83.8841 34.2709 83.9661 35.0498 83.9661C35.8288 83.9661 36.1567 83.8841 35.7878 83.7611ZM34.066 82.3673C34.4349 81.7114 33.2461 80.6865 32.4671 81.0144C31.7702 81.2604 31.5652 82.0393 32.0572 82.5313C32.4671 82.9822 33.738 82.8592 34.066 82.3673ZM31.4423 80.8915C32.2622 80.0715 32.2622 79.8666 31.8112 78.3087C31.4013 76.9559 31.1553 76.6689 30.6223 76.9149C29.4335 77.4478 24.637 78.6777 23.6941 78.6777C22.6692 78.7187 21.3984 79.8256 21.6443 80.5225C21.9313 81.3834 24.596 81.9983 27.5477 81.8754C29.9664 81.7934 30.7043 81.6294 31.4423 80.8915ZM42.593 81.0144C45.7906 79.8666 47.3485 78.9237 47.3485 78.1038C47.3485 77.1609 45.9546 76.6689 43.4129 76.6689C42.1421 76.6689 39.5593 76.341 37.7145 75.972C34.025 75.1931 32.1802 75.521 32.1802 76.9149C32.1802 77.8578 34.0659 81.0555 34.9678 81.5474C36.1977 82.2853 39.8053 82.0393 42.593 81.0144ZM20.2505 79.9895C20.7424 79.0877 20.1685 76.9149 19.1436 75.767C17.7498 74.1272 14.3062 75.767 14.6341 77.9398C14.9211 80.0715 19.3896 81.6704 20.2505 79.9895ZM12.5434 78.7187C12.9533 78.4727 13.3223 77.9398 13.3223 77.4888C13.3223 76.6279 10.6576 71.1346 9.71469 70.0277C8.7718 68.9208 7.45994 69.1258 5.98411 70.6836C4.75425 71.9545 4.63126 72.2414 4.91823 73.8812C5.32818 76.6279 5.90211 77.7758 7.09098 78.2678C9.46871 79.1697 11.3955 79.3336 12.5434 78.7187ZM28.7366 76.3C30.9503 75.3161 30.9913 74.6602 29.1055 72.4464C28.3266 71.5445 27.6707 70.6426 27.6707 70.4376C27.6707 69.5357 25.9899 70.3146 24.2681 72.0774C22.4233 73.9632 21.2754 76.341 21.8083 77.2019C22.1773 77.7758 26.6458 77.2019 28.7366 76.3ZM49.5212 75.685C49.7672 74.9471 49.7672 74.4142 49.4802 74.1272C48.8653 73.5123 47.7584 74.4552 47.7584 75.6441C47.7584 77.4478 48.9063 77.4888 49.5212 75.685ZM15.2901 74.9061C15.618 74.5372 15.3311 73.8812 14.3062 72.4464C12.0104 69.2898 10.6576 70.3966 12.5844 73.8402C13.4863 75.4801 14.5111 75.849 15.2901 74.9061ZM48.2504 72.2004C49.9312 69.0028 50.0542 68.2239 48.8653 67.486C48.2504 67.117 47.9634 67.199 47.3075 68.0189C46.3646 69.1668 44.7248 74.4142 45.0937 75.0291C45.7086 76.013 46.6925 75.1111 48.2504 72.2004ZM37.7145 74.6192C37.8785 74.3322 38.2475 74.3732 38.8214 74.6601C40.0103 75.2751 42.142 74.7832 43.3719 73.5533C43.9868 72.9794 44.6838 71.4215 45.1347 69.8227C45.7906 67.445 45.7906 67.035 45.2577 66.0511C44.7658 65.1492 44.3148 64.9853 42.593 64.8623L40.5432 64.7393L39.2314 68.6338C38.4935 70.7656 37.9195 72.7744 37.9195 73.1023C37.9195 73.5123 37.6326 73.6353 37.0996 73.5123C36.2797 73.3073 35.0498 74.0042 35.0498 74.6601C35.0498 75.1521 37.3866 75.1111 37.7145 74.6192ZM22.2593 72.8974C23.4891 71.9135 24.965 70.4786 25.4979 69.6587C26.3998 68.3059 26.4408 67.9779 26.0719 66.5431C25.211 63.4274 22.5462 62.0336 18.8977 62.8125C14.6341 63.7144 13.3223 64.8623 13.3223 67.6909C13.3223 70.0277 13.9372 71.4625 15.659 73.0203C17.9138 75.1521 19.3896 75.1111 22.2593 72.8974ZM35.3778 73.2253C37.1816 72.2824 38.4525 70.1917 38.6574 67.7729C38.9034 64.7393 38.6574 64.0834 35.6648 60.0248C32.7131 56.0073 32.0162 55.4333 31.1143 56.2122C30.0894 57.0731 29.7204 58.098 29.0645 61.6236C27.9986 67.8139 28.4496 70.1507 31.1963 72.5694C32.7541 73.9222 33.738 74.0862 35.3778 73.2253ZM5.45116 70.0277C6.14808 69.3307 6.0661 68.8798 5.1642 68.8798C4.71325 68.8798 4.22131 68.7158 4.09832 68.4699C3.72936 67.8959 2.25353 67.9369 2.25353 68.5518C2.25353 69.2898 3.52438 70.5196 4.3033 70.5196C4.67226 70.5196 5.1642 70.3146 5.45116 70.0277ZM12.1334 67.24C12.7484 65.1902 12.1334 64.2883 10.2886 64.4523C8.64881 64.6163 8.40284 65.9281 9.6327 67.6499C10.8216 69.3308 11.5595 69.2078 12.1334 67.24ZM6.76302 66.4611C8.52582 64.7393 8.64881 63.5504 7.45995 60.9267C6.39407 58.59 5.28719 57.6881 3.77036 57.893C2.95045 58.016 2.90945 58.262 2.82746 61.7056C2.74547 67.404 4.13932 69.1258 6.76302 66.4611ZM28.0806 63.5094C28.0806 61.5006 27.7117 61.0497 26.9737 62.0336C26.2768 62.8945 26.0719 64.4113 26.4818 65.4772C27.0967 67.158 28.0806 65.9281 28.0806 63.5094ZM50.8331 65.8461C52.0629 64.9852 51.12 63.3864 48.7423 62.3615C46.4056 61.2957 46.2416 61.2957 45.7086 62.3205C45.3807 62.9355 45.4217 63.4274 45.9136 64.3703C46.8975 66.2971 49.2752 66.994 50.8331 65.8461ZM41.5681 63.9194C43.0849 63.3864 44.8887 60.5987 44.8887 58.7539C44.8887 58.057 44.3968 56.8272 43.6589 55.8433C41.4041 52.7276 39.7233 52.5636 37.6325 55.2693C35.9927 57.4421 35.9517 58.7539 37.3456 60.8857C38.2885 62.3205 39.9693 64.3703 40.1743 64.3703C40.2153 64.3703 40.8302 64.1653 41.5681 63.9194ZM15.4131 62.2796C17.6678 60.7217 17.9138 57.7701 16.11 55.0644C14.7981 53.2196 13.6093 52.7686 11.9284 53.4655C9.87867 54.3265 8.81279 55.9253 8.81279 58.18C8.81279 60.6397 10.0017 62.5665 11.7645 63.0585C13.2813 63.4684 13.8552 63.3454 15.4131 62.2796ZM26.8918 60.3118C28.4906 57.3191 28.4906 54.7774 26.8918 51.4158C25.5389 48.5461 24.391 47.5622 22.4233 47.5622C20.1275 47.5622 18.2417 50.6368 18.2417 54.3674C18.2417 56.1712 19.7586 58.7949 21.9723 60.8857C24.596 63.3044 25.3339 63.2224 26.8918 60.3118ZM20.7015 61.3777C20.7015 60.7217 19.1846 59.0409 18.6517 59.0409C17.9548 59.0409 17.6678 61.1317 18.2827 61.5416C19.1436 62.0746 20.7015 61.9926 20.7015 61.3777ZM51.079 60.7217C51.8579 60.0658 52.0629 59.5738 51.9809 58.139C51.858 55.3513 50.5871 51.9077 49.6032 51.7437C48.4143 51.5798 45.1347 53.3835 44.9707 54.2444C44.7658 55.1873 47.1025 59.7788 48.2504 60.8037C49.3162 61.7056 49.8902 61.7056 51.079 60.7217ZM36.3617 55.4743C38.4525 53.2196 38.7394 51.9897 37.6735 49.8169C36.8536 48.0951 36.2797 48.3001 34.6399 50.8008C33.369 52.8096 33.0821 54.4084 33.82 55.8023C34.4349 56.8681 35.1318 56.7862 36.3617 55.4743ZM7.21397 55.2283C8.89478 54.1215 9.6327 52.7686 9.6327 50.8008C9.6327 48.9971 8.15686 46.0864 6.68102 44.9795C5.65614 44.2006 5.49217 44.2006 4.59027 44.8155C3.72937 45.3894 3.52438 45.9224 3.27841 48.4641C2.4995 55.7613 3.60638 57.6471 7.21397 55.2283ZM32.2622 53.4245C33.0821 52.4407 35.3778 45.7994 35.7058 43.4217C36.1157 40.347 35.5418 39.7731 32.2622 39.7731C28.4496 39.7731 26.4818 40.388 25.9899 41.6999C25.4979 43.0527 25.9489 44.5695 28.4086 49.407C30.9913 54.5724 31.1553 54.6954 32.2622 53.4245ZM17.8728 52.2357C18.4057 50.8008 17.2988 48.8741 16.3969 49.612C15.536 50.3499 15.2901 51.5388 15.782 52.4817C16.3969 53.6295 17.3808 53.5065 17.8728 52.2357ZM44.4788 52.0717C45.3807 51.6207 46.2826 50.9238 46.4876 50.4729C46.9385 49.653 46.6106 47.9722 45.6677 46.2914C45.3397 45.7584 44.6428 44.0366 44.0688 42.4378C43.0849 39.7321 42.962 39.5681 41.6911 39.4451C39.1904 39.1991 37.5096 41.6179 37.5096 45.4304C37.5096 47.4392 37.7145 48.1361 38.6984 49.489C39.9283 51.1698 41.8551 52.8916 42.511 52.8916C42.716 52.8916 43.5769 52.5226 44.4788 52.0717ZM15.1671 49.8989C15.495 49.407 15.782 48.7511 15.782 48.4641C15.782 48.1361 16.274 47.3162 16.8479 46.6193C17.7908 45.4714 17.9138 45.0615 17.7498 42.8887C17.5858 40.511 17.5038 40.347 15.3721 38.4612C13.9782 37.2314 12.7893 36.4934 12.1744 36.4934C10.6986 36.4934 8.56682 38.2972 7.99288 39.9781C7.45994 41.5769 7.66492 42.5608 9.01777 44.6925C9.46872 45.4714 10.2066 46.9883 10.6166 48.0951C11.7645 51.1288 13.7322 51.9077 15.1671 49.8989ZM50.1361 48.9561C50.3001 47.9312 49.2342 46.9473 48.3733 47.3162C47.6354 47.6032 47.5534 49.448 48.2914 49.735C49.2342 50.1449 50.0132 49.817 50.1361 48.9561ZM24.637 45.5944C25.006 45.3895 25.006 44.8155 24.678 43.3807C24.2681 41.6589 24.0631 41.4129 23.1202 41.4129C22.5052 41.4129 21.4804 41.2899 20.8244 41.1669C19.5946 40.921 19.5946 40.9619 19.3486 43.0527C19.1846 44.2416 19.1846 45.3894 19.3076 45.5534C19.5536 46.0044 24.0221 46.0454 24.637 45.5944ZM49.3982 43.3397C49.3982 41.2899 49.2342 40.552 48.6193 40.019C47.1435 38.7072 45.4217 40.634 45.9546 42.9707C46.2826 44.4056 47.6764 45.9224 48.6603 45.9224C49.3162 45.9224 49.3982 45.5534 49.3982 43.3397ZM6.968 43.4627C7.25497 42.9707 6.84501 41.4129 6.39406 41.4129C5.61515 41.4129 4.59026 42.5608 4.83623 43.2167C5.1232 43.9546 6.55804 44.1186 6.968 43.4627ZM38.1245 39.9371C39.0674 38.9942 38.7394 37.9693 37.3866 37.8053C36.0747 37.6413 35.5828 38.4612 36.2797 39.7321C36.8126 40.757 37.2226 40.798 38.1245 39.9371ZM50.5461 38.8302C50.7101 37.9283 49.8492 35.6735 49.3572 35.6735C48.5373 35.6735 48.0044 37.6823 48.5373 38.7892C49.0703 39.978 50.3411 39.9781 50.5461 38.8302ZM24.1861 38.4612C23.4891 35.6325 23.3252 33.0908 23.7351 30.7541C24.1451 28.2534 24.1451 28.1714 23.0382 27.2285C21.8493 26.2446 20.1275 25.9576 19.1026 26.6136C18.6517 26.9005 18.6107 27.5154 18.7747 29.2373C19.0206 31.287 18.9796 31.574 17.8318 33.0088C15.1671 36.3295 17.3398 39.3221 22.4643 39.3631C24.268 39.3631 24.391 39.2811 24.1861 38.4612ZM33.41 37.9693C34.2299 37.6003 34.4759 37.1494 34.5579 35.7555C34.9678 30.3851 30.1304 25.4657 27.6297 28.7453C26.0718 30.7951 25.2519 37.8053 26.4818 38.5842C27.1787 38.9942 32.0982 38.5842 33.41 37.9693ZM47.1025 37.7643C48.2504 36.4934 48.3733 34.0747 47.3485 32.4759L46.5286 31.1231L45.2987 31.984C44.6428 32.4349 44.0278 33.1318 43.9048 33.5418C43.4539 35.1406 43.2079 37.7233 43.4539 38.1333C43.9049 38.8302 46.3646 38.5842 47.1025 37.7643ZM15.782 35.6735C15.782 33.8697 15.577 33.7058 14.4701 34.7306C13.5273 35.5506 13.5273 36.3295 14.4701 36.8624C15.618 37.5593 15.782 37.3953 15.782 35.6735ZM41.6501 36.4525C42.347 35.7555 42.47 35.2636 42.306 33.9517C41.9781 31.574 40.9532 30.6311 39.0264 30.8771C36.9356 31.164 36.2797 31.82 36.2797 33.5828C36.2797 36.6984 39.6413 38.4612 41.6501 36.4525ZM8.48483 35.7965C9.38673 34.9766 9.42772 33.5008 8.56682 32.7629C7.70591 32.066 7.17297 32.8858 7.17297 34.9766C7.17297 36.6574 7.37796 36.8214 8.48483 35.7965ZM14.4701 33.6238C17.5448 31.0411 17.2169 23.129 14.0192 22.309C11.8055 21.7761 10.7396 22.268 9.75568 24.1948C9.22274 25.2197 8.6898 26.8595 8.56682 27.8844C8.36184 29.4832 8.52583 30.0572 9.71469 32.0659C10.8626 34.0747 11.2315 34.4027 12.2974 34.4027C12.9943 34.4027 13.9372 34.0747 14.4701 33.6238ZM45.0117 30.4261C45.6267 29.7702 45.6267 29.5242 45.0117 27.4745C44.6838 26.2446 44.3148 25.1377 44.2328 25.0557C44.1508 24.9737 43.6179 25.2197 43.0439 25.5887C41.7731 26.4086 41.6911 27.9664 42.839 29.8522C43.7819 31.369 44.1098 31.451 45.0117 30.4261ZM27.5477 27.3515C27.3017 26.6136 26.1948 26.0806 25.4569 26.3676C24.596 26.6955 24.596 28.0484 25.4979 28.9093C26.1538 29.5652 26.2358 29.5652 26.9328 28.7043C27.3427 28.1714 27.6297 27.5565 27.5477 27.3515ZM40.1743 28.4173C40.0103 27.7614 39.6413 26.2446 39.3544 25.0147C38.7394 22.0631 38.1245 20.9972 36.8946 20.6692C35.3368 20.3003 34.8039 20.6692 33.451 23.047C31.8932 25.7527 31.8522 26.8185 33.369 28.3354C34.4759 29.4422 34.8039 29.5242 37.5096 29.5242H40.4612L40.1743 28.4173ZM19.2666 25.7117C19.6766 25.3837 19.8815 24.9327 19.7176 24.6458C19.3486 24.0718 17.0119 22.842 16.7249 23.0879C16.4789 23.3749 17.7498 26.2446 18.1597 26.2446C18.3237 26.2446 18.8157 25.9986 19.2666 25.7117ZM30.1714 25.6297C31.7292 24.8098 32.1802 23.5799 32.1802 20.0953C32.1802 14.5199 30.9093 11.4863 28.8185 12.0602C28.2856 12.2242 27.0557 13.372 26.1129 14.6839L24.309 17.0206L24.555 20.1363C24.801 23.9078 25.3339 25.3427 26.5228 25.8346C27.9166 26.3676 28.7775 26.3266 30.1714 25.6297ZM23.7351 23.9079C24.0631 22.555 23.3661 18.6194 22.6692 17.6765C19.5946 13.577 17.3398 13.2491 16.5609 16.8157C15.782 20.2593 16.6429 21.8581 20.2915 23.9489C22.6692 25.3017 23.4481 25.3017 23.7351 23.9079ZM43.4539 23.7849C44.4788 22.637 44.1098 19.5214 42.47 16.2007C40.9532 13.1261 39.7233 12.1832 38.8624 13.372C38.5754 13.782 38.0835 14.8479 37.8375 15.7088C37.3866 17.1846 37.4686 17.4716 38.9444 20.2183C41.3631 24.8098 42.0601 25.3427 43.4539 23.7849ZM15.618 17.6356C16.028 14.3559 15.823 13.536 14.6751 13.536C14.4292 13.536 14.0602 14.2329 13.9372 15.0938C13.8142 15.9138 13.4453 17.1846 13.1173 17.8815C12.8303 18.5784 12.7073 19.3164 12.8303 19.5624C13.1173 19.9723 14.5931 20.8742 15.0031 20.9152C15.1261 20.9152 15.4131 19.4394 15.618 17.6356ZM36.6487 18.9064C37.1406 18.5784 37.1816 18.2915 36.7717 17.4716C36.3207 16.4057 34.6399 15.7088 33.861 16.2007C33.246 16.5697 33.287 18.7424 33.943 18.9884C34.7629 19.3574 36.0337 19.2754 36.6487 18.9064ZM26.1948 13.495C26.7688 12.7981 27.2607 11.7322 27.2607 11.1583C27.2607 9.72346 25.4159 5.7879 24.596 5.50094C22.9972 4.88601 20.2915 8.16564 20.2915 10.8303C20.2915 12.1012 20.5785 12.6751 21.8903 14.028C23.7351 15.8318 24.2681 15.7908 26.1948 13.495ZM37.4686 12.9211C38.7394 10.5434 38.4115 9.35449 35.9517 7.09974C33.902 5.17296 33.1641 5.00898 31.3603 5.95188C30.2124 6.52581 28.4906 8.41159 28.4906 9.06752C28.4906 9.88742 29.9254 10.6663 31.4013 10.6663C32.7131 10.6663 33.0821 10.8303 33.369 11.6092C34.5169 14.6019 34.6399 14.7659 35.5418 14.7659C36.2387 14.7659 36.7307 14.2739 37.4686 12.9211ZM19.5946 8.90355C20.4965 7.18174 21.1114 5.62392 20.9884 5.50094C20.8244 5.33695 19.7176 6.07487 18.4467 7.14075C15.905 9.31351 15.2081 10.8713 16.4379 11.7732C16.8479 12.0602 17.3808 12.2652 17.5858 12.1832C17.7908 12.1012 18.7337 10.6254 19.5946 8.90355ZM30.8273 4.845C32.5081 3.65613 32.5081 3.08221 30.8683 2.01633C29.8024 1.4014 29.1055 1.2784 27.7117 1.44238C23.8581 2.01632 22.9152 3.32818 25.3339 4.88601C27.0557 5.99288 29.1465 5.99287 30.8273 4.845Z" fill="#CE9B60"/>
<path d="M15.3721 87.0408C15.3721 85.278 15.823 84.0481 16.438 84.0481C16.8479 84.0481 17.0119 84.622 17.0119 86.0979C17.0119 87.8607 16.8889 88.1476 16.192 88.1476C15.577 88.1476 15.3721 87.8607 15.3721 87.0408Z" fill="#CEBF9D"/>
<path d="M15.3721 88.0656C15.3721 86.8357 15.905 85.6879 16.438 85.6879C16.8069 85.6879 17.0119 86.1798 17.0119 87.1227C17.0119 88.2706 16.8479 88.5575 16.192 88.5575C15.741 88.5575 15.3721 88.3116 15.3721 88.0656Z" fill="#DECDAB"/>
<path d="M15.782 82.8182C15.782 82.2853 16.069 81.9983 16.602 81.9983C17.1349 81.9983 17.4219 82.2853 17.4219 82.8182C17.4219 83.3511 17.1349 83.6381 16.602 83.6381C16.069 83.6381 15.782 83.3511 15.782 82.8182Z" fill="#DECDAB"/>
<path d="M18.7747 84.54C15.9051 83.4741 15.0852 82.6542 16.397 82.1623C16.725 81.9983 18.2418 82.4082 19.7586 83.0232C22.1774 84.0071 23.0792 84.171 26.5639 84.13C30.2124 84.13 30.5404 84.171 30.5404 84.9089C30.5404 85.6469 30.2124 85.6879 26.1539 85.6469C22.4233 85.6469 21.2755 85.4419 18.7747 84.54Z" fill="#E9CCA1"/>
<path d="M32.1802 84.868C32.1802 84.1711 32.4671 84.0481 33.779 84.0481C35.7878 84.0481 36.6897 84.376 36.6897 85.114C36.6897 85.5239 36.0747 85.6879 34.4349 85.6879C32.4671 85.6879 32.1802 85.6059 32.1802 84.868Z" fill="#E9CCA1"/>
<path d="M15.3721 88.4756C15.3721 87.2457 15.905 86.0978 16.438 86.0978C16.8069 86.0978 17.0119 86.5898 17.0119 87.5327C17.0119 88.6805 16.8479 88.9675 16.192 88.9675C15.741 88.9675 15.3721 88.7215 15.3721 88.4756Z" fill="#DCD4BE"/>
<path d="M27.4657 90.3614C25.4569 90.0744 21.9313 89.6235 19.6356 89.3775L15.4951 88.8855L15.7 85.7699C15.782 84.0071 16.028 82.4493 16.192 82.2853C16.315 82.1213 18.0368 82.5312 19.9226 83.2692C23.2022 84.499 23.5712 84.54 27.6707 84.294C30.0484 84.1711 33.0411 84.2121 34.3529 84.3351L36.7307 84.581L36.6077 87.6967L36.4847 90.8123L33.82 90.8533C32.3442 90.8943 29.5155 90.6893 27.4657 90.3614Z" fill="#F0D9AF"/>
<path d="M30.1304 92.6161C28.4496 92.4111 25.211 91.9192 22.9562 91.5502C20.7015 91.1812 18.0778 90.8123 17.1349 90.6893C15.536 90.5253 15.3721 90.4433 15.3721 89.3775C15.3721 87.6966 15.782 86.8358 16.356 87.2867C16.8479 87.6967 30.6634 89.5005 33.615 89.5414L35.2548 89.5824L35.3778 87.3687C35.4598 85.8518 35.3368 85.032 34.9679 84.827C34.5989 84.581 34.8039 84.458 35.5828 84.458H36.7307L36.6077 88.6805L36.4847 92.8621L34.8449 92.903C33.943 92.944 31.8112 92.8211 30.1304 92.6161Z" fill="#F7E7C8"/>
<path d="M15.8641 84.868C15.8641 84.0891 15.9461 83.7611 16.0691 84.1711C16.151 84.54 16.151 85.1959 16.0691 85.6059C15.9461 85.9749 15.8641 85.6469 15.8641 84.868Z" fill="#F7E7C8"/>
<path d="M18.0367 127.052C11.9284 125.658 9.63269 124.265 9.63269 122.051C9.63269 121.354 10.0016 119.591 10.4526 118.115C11.9284 113.155 13.6502 104.013 14.5931 96.2647C15.0851 92.0012 15.659 88.5576 15.864 88.5576C16.028 88.5576 16.192 88.7625 16.192 89.0085C16.192 89.2135 16.3149 89.3365 16.5199 89.2135C16.6839 89.1315 17.6268 89.2135 18.6517 89.3775C23.1202 90.2384 28.0806 90.9763 30.7863 91.1813C32.3851 91.3043 33.984 91.5092 34.3119 91.6322C35.1318 91.9602 35.9517 90.8943 36.3207 89.0495C36.4437 88.2296 36.6077 91.4272 36.6487 96.2237C36.6896 103.398 36.5257 106.268 35.6648 112.458C34.3529 122.092 33.656 124.552 31.8112 125.617C28.9005 127.298 22.2183 127.995 18.0367 127.052Z" fill="#F7ECD3"/>
</svg>
